<svg width="114" height="60" viewBox="0 0 114 60" fill="none" xmlns="http://www.w3.org/2000/svg">
<path d="M48.5284 40.8427L16.658 22.6035C12.5164 20.2333 7.22064 21.6399 4.82952 25.7451C2.4384 29.8504 3.8574 35.0998 7.99894 37.4699L39.8694 55.7091C44.0109 58.0793 49.3067 56.6727 51.6978 52.5675C54.0889 48.4622 52.6699 43.2128 48.5284 40.8427Z" fill="white"/>
<path d="M16.088 21.4456L30.3098 29.5868L48.5287 19.1602C50.5174 18.022 51.9686 16.1473 52.563 13.9485C53.1573 11.7498 52.8461 9.407 51.6979 7.43562C50.5496 5.46429 48.6584 4.02582 46.4402 3.43668C44.222 2.84755 41.8585 3.156 39.8697 4.29415L11.9052 20.2968C13.3755 20.3197 14.8155 20.7152 16.088 21.4456Z" fill="white"/>
<path d="M65.4723 19.158L97.3427 37.3972C101.484 39.7674 106.78 38.3608 109.171 34.2555C111.562 30.1503 110.143 24.9009 106.002 22.5307L74.1313 4.29154C69.9898 1.92137 64.694 3.32793 62.3029 7.43319C59.9117 11.5385 61.3307 16.7878 65.4723 19.158Z" fill="white"/>
<path d="M97.9125 38.555L83.6908 30.4139L65.4719 40.8404C63.4832 41.9786 62.032 43.8533 61.4377 46.0521C60.8433 48.2509 61.1545 50.5936 62.3027 52.565C63.451 54.5363 65.3422 55.9748 67.5604 56.5639C69.7787 57.1531 72.1421 56.8446 74.1309 55.7065L102.095 39.7013C100.625 39.6791 99.1851 39.2845 97.9125 38.555Z" fill="white"/>
</svg>
