<svg width="55" height="79" viewBox="0 0 55 79" fill="none" xmlns="http://www.w3.org/2000/svg">
<path d="M27.3098 54.4228C31.4677 54.4228 35.026 52.9425 37.9865 49.9832C40.9464 47.0239 42.4265 43.4638 42.4265 39.3062V15.1182C42.4265 10.9606 40.9475 7.40202 37.9865 4.44126C35.026 1.48116 31.4677 3.05176e-05 27.3098 3.05176e-05C23.1523 3.05176e-05 19.5936 1.48116 16.633 4.44126C13.6722 7.40153 12.1921 10.9606 12.1921 15.1182V39.3062C12.1921 43.4637 13.6729 47.0239 16.633 49.9832C19.5931 52.9425 23.1523 54.4228 27.3098 54.4228Z" fill="white"/>
<path d="M53.6227 31.1339C53.026 30.5354 52.3158 30.236 51.4969 30.236C50.6788 30.236 49.9703 30.5354 49.3711 31.1339C48.7733 31.7322 48.4741 32.4407 48.4741 33.2593V39.3068C48.4741 45.1336 46.4028 50.1174 42.261 54.259C38.1206 58.4007 33.1361 60.4716 27.3091 60.4716C21.4822 60.4716 16.4982 58.4007 12.3563 54.259C8.21491 50.1186 6.14437 45.1338 6.14437 39.3068V33.2593C6.14437 32.4407 5.84503 31.7322 5.24686 31.1339C4.64835 30.5354 3.94046 30.236 3.12105 30.236C2.30164 30.236 1.59293 30.5354 0.994754 31.1339C0.39608 31.7322 0.0969086 32.4407 0.0969086 33.2593V39.3068C0.0969086 46.2673 2.42012 52.3225 7.06521 57.4714C11.7105 62.6205 17.4505 65.573 24.2854 66.3284V72.5651H12.1913C11.3724 72.5651 10.6639 72.8648 10.0655 73.4633C9.46702 74.0613 9.16769 74.7702 9.16769 75.5891C9.16769 76.4067 9.46702 77.1169 10.0655 77.7149C10.6639 78.3129 11.3724 78.613 12.1913 78.613H42.426C43.2447 78.613 43.9543 78.313 44.5518 77.7149C45.151 77.117 45.4505 76.4068 45.4505 75.5891C45.4505 74.7703 45.151 74.0615 44.5518 73.4633C43.9544 72.8648 43.2449 72.5651 42.426 72.5651H30.3334V66.3284C37.1672 65.573 42.9067 62.6205 47.5524 57.4714C52.1982 52.3225 54.5221 46.2673 54.5221 39.3068V33.2593C54.5221 32.4409 54.2221 31.7329 53.6227 31.1339Z" fill="white"/>
</svg>
