<svg width="361" height="162" viewBox="0 0 361 162" fill="none" xmlns="http://www.w3.org/2000/svg">
<path d="M34.7585 2.32948H7.84413L8.84413 70.0853H35.7585C54.3102 70.0853 67.4403 55.3726 67.4403 36.2074C67.4403 17.0422 53.3102 2.32948 34.7585 2.32948ZM34.7585 55.1791H23.2238V17.2358H34.7585C45.332 17.2358 52.6374 24.5921 52.6374 36.2074C52.6374 47.8227 45.332 55.1791 34.7585 55.1791Z" fill="white"/>
<path d="M98.197 71.4405C112.808 71.4405 122.189 63.6969 122.189 50.6297C122.189 36.3042 110.75 32.7228 100.561 29.6254C90.084 26.4312 88.4499 24.3017 88.4499 21.2043C88.4499 18.4941 90.8529 16.0742 95.6591 16.0742C101.811 16.0742 104.983 19.0749 107.29 23.9146L120.267 16.2678C115.364 6.29804 106.713 0.974365 95.6591 0.974365C84.0282 0.974365 73.0702 8.52431 73.0702 21.5915C73.0702 34.5619 82.8747 39.4016 92.8715 42.2086C102.964 45.0157 106.809 46.6612 106.809 50.8233C106.809 53.4368 104.983 56.3406 97.6777 56.3406C90.0839 56.3406 85.9507 52.5656 83.5476 46.9516L70.2827 54.6951C74.0314 64.6649 84.067 71.4405 98.197 71.4405Z" fill="white"/>
<path d="M162.511 71.4405C174.814 71.4405 184.58 65.3424 190.348 55.7598L177.083 48.0163C174.199 53.2432 168.335 56.3406 161.511 56.3406C149.591 56.3406 141.902 48.3067 141.902 36.2074C141.902 24.1082 149.591 16.0742 161.511 16.0742C168.335 16.0742 174.103 19.1717 177.083 24.3985L190.348 16.655C184.484 7.0724 173.718 0.974365 161.511 0.974365C141.229 0.974365 126.522 16.2678 126.522 36.2074C126.522 56.147 142.229 71.4405 162.511 71.4405Z" fill="white"/>
<path d="M42.1763 106.076H47.9036C45.7302 109.152 43.6449 112.139 41.6477 115.037C39.6504 117.936 37.8588 120.627 36.2728 123.112C34.7455 125.537 33.5119 127.696 32.5721 129.589C31.6322 131.422 31.1623 132.872 31.1623 133.936C31.1623 135.474 31.9553 136.243 33.5413 136.243C34.7749 136.243 36.3315 135.652 38.2113 134.469C40.1497 133.227 42.2351 131.541 44.4673 129.411C46.6994 127.282 48.9904 124.797 51.34 121.958C53.6897 119.119 55.9219 116.102 58.0366 112.908L58.5653 113.085C56.9792 115.511 55.0995 118.143 52.9261 120.982C50.8114 123.762 48.5792 126.365 46.2295 128.79C43.8798 131.215 41.5302 133.256 39.1805 134.912C36.8308 136.509 34.628 137.308 32.5721 137.308C30.8685 137.308 29.6056 136.894 28.7832 136.066C28.0196 135.179 27.6378 134.143 27.6378 132.96C27.6378 132.132 27.7552 131.334 27.9902 130.565C28.2839 129.737 28.5776 128.908 28.8713 128.08L28.6951 127.992C27.9315 128.82 26.9622 129.796 25.7874 130.92C24.6713 131.984 23.4377 132.99 22.0867 133.936C20.7943 134.883 19.4433 135.681 18.0335 136.332C16.6237 136.983 15.2726 137.308 13.9803 137.308C11.8069 137.308 10.2796 136.628 9.39845 135.267C8.51732 133.907 8.07676 132.369 8.07676 130.653C8.07676 128.228 8.8404 125.566 10.3677 122.668C11.895 119.71 13.8335 116.96 16.1831 114.416C18.5328 111.814 21.0881 109.654 23.8489 107.939C26.6098 106.224 29.2238 105.366 31.6909 105.366C32.8658 105.366 33.8937 105.543 34.7749 105.898C35.656 106.194 36.3903 106.638 36.9777 107.229C37.5651 107.762 38.0057 108.383 38.2994 109.093C38.6518 109.802 38.9162 110.542 39.0924 111.311H39.2686L42.1763 106.076ZM13.3635 130.92C13.3635 132.28 13.6279 133.345 14.1565 134.114C14.7439 134.824 15.537 135.179 16.5356 135.179C17.5342 135.179 18.709 134.824 20.0601 134.114C21.4111 133.345 22.8209 132.339 24.2895 131.097C25.758 129.855 27.1972 128.435 28.607 126.838C30.0755 125.182 31.3679 123.437 32.4839 121.603C33.6 119.769 34.5105 117.906 35.2154 116.013C35.9203 114.12 36.2728 112.316 36.2728 110.601C36.2728 109.24 35.891 108.205 35.1273 107.495C34.3637 106.786 33.4238 106.431 32.3077 106.431C30.5455 106.431 28.5776 107.2 26.4042 108.738C24.2307 110.276 22.1748 112.257 20.2363 114.682C18.2978 117.048 16.6531 119.681 15.302 122.579C14.0097 125.478 13.3635 128.258 13.3635 130.92Z" fill="white"/>
<path d="M56.2158 107.141V106.076H63.0005C65.2914 102.408 67.6411 98.7114 70.0495 94.9848C72.4579 91.2582 74.9838 87.9161 77.6272 84.9585C80.2706 81.9418 83.0314 79.5166 85.9098 77.6828C88.7881 75.79 91.8133 74.8436 94.9854 74.8436C96.8651 74.8436 97.3924 75.2576 98.5672 76.0857C99.7421 76.8547 101.329 78.0673 101.329 79.7236C101.329 81.1432 100.889 82.3263 100.008 83.2727C99.1267 84.16 98.0106 84.6628 96.6595 84.7811C96.8945 83.953 97.0707 83.184 97.1882 82.4742C97.3644 81.7052 97.4525 80.8179 97.4525 79.8123C97.4525 78.6293 97.1588 77.6828 96.5714 76.973C96.0427 76.2632 95.1029 75.9083 93.7518 75.9083C91.5783 75.9083 89.3462 76.9139 87.0552 78.925C84.823 80.8771 82.5909 83.3614 80.3587 86.3782C78.1852 89.3949 76.0412 92.6779 73.9265 96.227C71.8705 99.7169 69.9026 103 68.0229 106.076H87.9364V107.141H67.4942C61.855 116.841 56.8032 125.152 52.3389 132.073C47.8745 138.994 43.5864 144.672 39.4744 149.109C35.3625 153.545 31.2506 156.799 27.1387 158.869C23.0268 160.939 18.4743 161.974 13.4812 161.974C11.719 161.974 10.0448 161.738 8.45881 161.265C6.81404 160.85 5.37487 160.2 4.14129 159.313C2.90772 158.425 1.90911 157.301 1.14546 155.941C0.381822 154.64 0 153.102 0 151.327C0 149.02 0.734273 147.038 2.20282 145.382C3.61262 143.785 6.02103 142.987 9.42805 142.987H10.2211V143.696C8.45881 143.815 6.96089 144.495 5.72732 145.737C4.49374 146.979 3.87696 148.695 3.87696 150.883C3.87696 153.959 4.72871 156.385 6.43222 158.159C8.13573 159.993 10.6323 160.91 13.9218 160.91C17.0938 160.91 20.119 160.17 22.9974 158.691C25.8757 157.272 28.666 155.29 31.3681 152.747C34.0115 150.203 36.6255 147.216 39.2101 143.785C41.736 140.354 44.2913 136.657 46.8759 132.694C49.4018 128.672 51.9571 124.502 54.5417 120.184C57.1263 115.806 59.7697 111.459 62.4718 107.141H56.2158Z" fill="white"/>
<path d="M98.1292 95.7833L91.1683 106.076H102.799L102.27 107.141H90.4634C88.1137 110.985 85.999 114.327 84.1193 117.167C82.2983 119.947 80.7416 122.372 79.4493 124.442C78.2158 126.454 77.2759 128.169 76.6297 129.589C75.9836 130.949 75.6605 132.162 75.6605 133.227C75.6605 134.35 76.0423 135.149 76.8059 135.622C77.5696 136.036 78.4507 136.243 79.4493 136.243C81.564 136.243 83.8843 135.445 86.4102 133.848C88.9948 132.191 91.5501 130.18 94.076 127.814C96.6019 125.448 99.0103 122.934 101.301 120.272C103.592 117.61 105.531 115.215 107.117 113.085L107.645 113.44C105.648 115.984 103.445 118.675 101.037 121.514C98.6872 124.295 96.2495 126.868 93.7236 129.234C91.1977 131.541 88.6424 133.463 86.0578 135.001C83.5319 136.539 81.1235 137.308 78.8325 137.308C77.0116 137.308 75.4255 136.746 74.0745 135.622C72.7821 134.498 72.136 132.931 72.136 130.92C72.136 129.559 72.5178 128.051 73.2814 126.394C74.0451 124.679 75.0437 122.845 76.2773 120.893C77.5108 118.941 78.8913 116.812 80.4186 114.505C82.0046 112.198 83.62 109.743 85.2648 107.141H80.5067L81.0354 106.076H85.9697L92.8424 95.7833H98.1292Z" fill="white"/>
<path d="M125.649 108.915C125.649 108.087 125.414 107.466 124.944 107.052C124.532 106.638 124.004 106.431 123.358 106.431C122.124 106.431 120.773 106.933 119.304 107.939C117.895 108.885 116.485 110.098 115.075 111.577C113.665 112.997 112.373 114.535 111.198 116.191C110.082 117.847 109.23 119.326 108.643 120.627C109.935 120.391 111.551 119.947 113.489 119.296C115.427 118.586 117.278 117.729 119.04 116.723C120.861 115.718 122.418 114.564 123.71 113.263C125.002 111.902 125.649 110.453 125.649 108.915ZM139.923 113.618C139.042 115.096 137.926 116.723 136.575 118.498C135.282 120.272 133.784 122.047 132.081 123.821C130.436 125.537 128.644 127.223 126.706 128.879C124.826 130.476 122.858 131.925 120.802 133.227C118.746 134.469 116.661 135.474 114.546 136.243C112.49 136.953 110.464 137.308 108.467 137.308C105.999 137.308 104.09 136.687 102.739 135.445C101.388 134.143 100.713 132.31 100.713 129.944C100.713 127.341 101.476 124.62 103.004 121.781C104.59 118.882 106.587 116.22 108.995 113.795C111.404 111.37 114.047 109.359 116.925 107.762C119.804 106.165 122.565 105.366 125.208 105.366C126.677 105.366 127.822 105.691 128.644 106.342C129.467 106.933 129.878 107.821 129.878 109.004C129.878 110.423 129.114 111.814 127.587 113.174C126.06 114.475 124.18 115.688 121.948 116.812C119.774 117.877 117.425 118.853 114.899 119.74C112.373 120.568 110.141 121.189 108.202 121.603C107.556 122.786 107.027 124.117 106.616 125.596C106.205 127.075 105.999 128.554 105.999 130.032C105.999 130.742 106.058 131.452 106.176 132.162C106.352 132.812 106.587 133.434 106.881 134.025C107.233 134.557 107.674 135.001 108.202 135.356C108.79 135.711 109.495 135.888 110.317 135.888C112.255 135.888 114.517 135.267 117.102 134.025C119.745 132.724 122.418 131.008 125.12 128.879C127.822 126.749 130.407 124.324 132.874 121.603C135.341 118.882 137.456 116.072 139.218 113.174L139.923 113.618Z" fill="white"/>
<path d="M150.761 106.076L139.571 122.49L139.747 122.668C140.57 121.662 141.598 120.509 142.831 119.208C144.124 117.847 145.504 116.487 146.972 115.126C148.5 113.706 150.086 112.316 151.731 110.956C153.375 109.595 154.991 108.383 156.577 107.318C156.87 106.726 157.194 106.253 157.546 105.898C157.898 105.543 158.603 105.366 159.661 105.366C160.307 105.366 160.865 105.396 161.335 105.455C161.863 105.455 162.392 105.484 162.921 105.543C161.922 106.549 160.953 107.791 160.013 109.27C159.073 110.69 158.603 112.257 158.603 113.973C158.603 115.333 158.926 116.398 159.573 117.167C160.277 117.936 161.129 118.32 162.128 118.32C163.009 118.32 163.861 118.143 164.683 117.788C165.564 117.433 166.387 116.989 167.15 116.457C167.914 115.925 168.648 115.363 169.353 114.771C170.058 114.18 170.675 113.647 171.203 113.174L171.732 113.529C171.145 114.12 170.469 114.771 169.706 115.481C168.942 116.132 168.119 116.753 167.238 117.344C166.357 117.936 165.417 118.439 164.419 118.853C163.42 119.208 162.392 119.385 161.335 119.385C159.455 119.385 157.928 118.823 156.753 117.699C155.637 116.516 155.079 114.889 155.079 112.819C155.079 111.399 155.402 110.128 156.048 109.004L155.872 108.826C153.463 110.483 150.82 112.671 147.942 115.392C145.063 118.054 142.009 121.219 138.778 124.886C137.603 126.187 136.37 127.903 135.077 130.032C133.844 132.162 132.757 134.35 131.817 136.598H126.09C129.262 131.511 132.434 126.454 135.606 121.426C138.778 116.398 142.038 111.281 145.386 106.076H150.761Z" fill="white"/>
<path d="M203.189 75.1985L171.997 121.869L172.173 122.047C173.348 120.568 174.729 118.882 176.315 116.989C177.901 115.037 179.604 113.204 181.425 111.488C183.305 109.773 185.273 108.324 187.329 107.141C189.385 105.957 191.441 105.366 193.497 105.366C197.08 105.366 198.871 107.17 198.871 110.778C198.871 111.725 198.519 112.849 197.814 114.15C197.168 115.451 196.316 116.841 195.259 118.32C194.26 119.74 193.174 121.189 191.999 122.668C190.824 124.147 189.708 125.596 188.65 127.016C187.652 128.376 186.8 129.677 186.095 130.92C185.449 132.103 185.126 133.108 185.126 133.936C185.126 134.587 185.302 135.149 185.655 135.622C186.066 136.036 186.594 136.243 187.241 136.243C188.592 136.243 190.06 135.829 191.646 135.001C193.291 134.114 194.965 132.99 196.669 131.629C198.431 130.21 200.164 128.642 201.867 126.927C203.571 125.211 205.127 123.526 206.537 121.869C208.006 120.154 209.298 118.557 210.414 117.078C211.589 115.54 212.441 114.298 212.969 113.351L213.498 113.529C212.852 114.653 211.941 116.013 210.767 117.61C209.592 119.208 208.241 120.893 206.713 122.668C205.245 124.442 203.63 126.217 201.867 127.992C200.164 129.707 198.431 131.275 196.669 132.694C194.965 134.055 193.262 135.179 191.558 136.066C189.855 136.894 188.269 137.308 186.8 137.308C185.273 137.308 184.01 136.835 183.011 135.888C182.071 134.942 181.601 133.641 181.601 131.984C181.601 130.801 181.924 129.5 182.571 128.08C183.276 126.661 184.127 125.241 185.126 123.821C186.183 122.343 187.299 120.893 188.474 119.474C189.649 117.995 190.736 116.605 191.734 115.303C192.792 114.002 193.643 112.819 194.29 111.754C194.995 110.63 195.347 109.684 195.347 108.915C195.347 107.969 195.083 107.318 194.554 106.963C194.025 106.608 193.379 106.431 192.615 106.431C191.147 106.431 189.502 106.993 187.681 108.117C185.919 109.181 184.069 110.601 182.13 112.375C180.25 114.15 178.371 116.161 176.491 118.409C174.611 120.598 172.82 122.816 171.116 125.064C169.471 127.311 168.003 129.441 166.71 131.452C165.477 133.463 164.508 135.179 163.803 136.598H158.075C161.306 131.511 164.625 126.335 168.032 121.071C171.439 115.806 174.817 110.571 178.165 105.366C181.572 100.161 184.891 95.0439 188.122 90.016C191.353 84.929 194.407 80.0785 197.285 75.4647L203.189 75.1985Z" fill="white"/>
<path d="M255.117 114.15C253.707 115.747 252.121 117.019 250.359 117.965C248.597 118.912 246.864 119.385 245.16 119.385C243.515 119.385 242.106 119.03 240.931 118.32C239.756 117.551 238.845 116.664 238.199 115.658H238.023C237.436 117.906 236.349 120.302 234.763 122.845C233.177 125.389 231.268 127.725 229.036 129.855C226.862 131.984 224.454 133.759 221.81 135.179C219.167 136.598 216.465 137.308 213.704 137.308C211.178 137.308 209.269 136.569 207.977 135.09C206.684 133.611 206.038 131.629 206.038 129.145C206.038 127.844 206.361 126.335 207.007 124.62C207.654 122.904 208.535 121.189 209.651 119.474C210.826 117.699 212.177 115.984 213.704 114.327C215.29 112.612 216.994 111.104 218.815 109.802C220.636 108.442 222.545 107.377 224.542 106.608C226.598 105.78 228.654 105.366 230.71 105.366C233.118 105.366 234.968 106.076 236.261 107.495C237.612 108.915 238.346 110.749 238.464 112.997C238.581 114.357 239.198 115.629 240.314 116.812C241.489 117.936 243.075 118.498 245.072 118.498C246.834 118.498 248.479 118.054 250.006 117.167C251.592 116.279 253.061 115.126 254.412 113.706L255.117 114.15ZM210.796 131.275C210.796 132.812 211.09 134.025 211.677 134.912C212.265 135.8 213.146 136.243 214.321 136.243C215.907 136.243 217.463 135.829 218.991 135.001C220.577 134.114 222.075 132.99 223.484 131.629C224.953 130.21 226.304 128.613 227.538 126.838C228.771 125.064 229.829 123.23 230.71 121.337C231.65 119.444 232.384 117.61 232.913 115.836C233.441 114.002 233.706 112.346 233.706 110.867C233.706 109.625 233.382 108.59 232.736 107.762C232.149 106.874 231.209 106.431 229.917 106.431C228.683 106.431 227.361 106.845 225.952 107.673C224.542 108.442 223.103 109.477 221.634 110.778C220.224 112.08 218.873 113.588 217.581 115.303C216.289 117.019 215.114 118.793 214.056 120.627C213.058 122.461 212.265 124.295 211.677 126.128C211.09 127.962 210.796 129.677 210.796 131.275Z" fill="white"/>
<path d="M267.218 106.076C264.927 109.211 262.724 112.198 260.609 115.037C258.495 117.877 256.615 120.479 254.97 122.845C253.325 125.211 252.004 127.282 251.005 129.056C250.065 130.772 249.595 132.132 249.595 133.138C249.595 134.084 249.83 134.794 250.3 135.267C250.77 135.681 251.387 135.888 252.151 135.888C253.267 135.888 254.471 135.533 255.763 134.824C257.114 134.114 258.465 133.197 259.816 132.073C261.226 130.949 262.577 129.707 263.87 128.346C265.221 126.986 266.454 125.655 267.57 124.354C268.745 122.993 269.744 121.751 270.566 120.627C271.447 119.503 272.093 118.616 272.505 117.965L280.259 106.076H286.338C283.166 110.453 280.464 114.18 278.232 117.255C276.059 120.272 274.267 122.845 272.857 124.975C271.506 127.104 270.537 128.849 269.949 130.21C269.362 131.511 269.068 132.665 269.068 133.67C269.068 134.38 269.274 135.001 269.685 135.533C270.096 136.007 270.684 136.243 271.447 136.243C272.622 136.243 273.973 135.829 275.5 135.001C277.028 134.114 278.614 132.99 280.259 131.629C281.903 130.21 283.519 128.642 285.105 126.927C286.75 125.152 288.277 123.407 289.687 121.692C291.155 119.976 292.477 118.379 293.652 116.901C294.827 115.363 295.737 114.12 296.383 113.174L297.264 113.44C296.559 114.446 295.62 115.747 294.445 117.344C293.27 118.882 291.948 120.538 290.48 122.313C289.011 124.028 287.454 125.803 285.81 127.637C284.165 129.411 282.461 131.008 280.699 132.428C278.996 133.848 277.292 135.031 275.589 135.977C273.944 136.864 272.387 137.308 270.919 137.308C269.274 137.308 267.952 136.864 266.954 135.977C266.014 135.031 265.544 133.788 265.544 132.251C265.544 131.067 265.72 129.944 266.072 128.879C266.484 127.755 266.777 127.045 266.954 126.749L266.777 126.572C265.544 127.992 264.251 129.352 262.9 130.653C261.549 131.955 260.198 133.108 258.847 134.114C257.496 135.06 256.116 135.829 254.706 136.421C253.355 137.012 252.004 137.308 250.653 137.308C248.773 137.308 247.422 136.894 246.6 136.066C245.777 135.179 245.366 134.143 245.366 132.96C245.366 131.482 245.777 129.884 246.6 128.169C247.363 126.454 248.45 124.531 249.86 122.402C251.27 120.272 252.944 117.877 254.882 115.215C256.879 112.553 259.053 109.507 261.402 106.076H267.218Z" fill="white"/>
<path d="M308.132 106.076L296.941 122.49L297.118 122.668C297.94 121.662 298.968 120.509 300.202 119.208C301.494 117.847 302.874 116.487 304.343 115.126C305.87 113.706 307.456 112.316 309.101 110.956C310.746 109.595 312.361 108.383 313.947 107.318C314.241 106.726 314.564 106.253 314.916 105.898C315.269 105.543 315.974 105.366 317.031 105.366C317.677 105.366 318.235 105.396 318.705 105.455C319.234 105.455 319.763 105.484 320.291 105.543C319.293 106.549 318.323 107.791 317.384 109.27C316.444 110.69 315.974 112.257 315.974 113.973C315.974 115.333 316.297 116.398 316.943 117.167C317.648 117.936 318.5 118.32 319.498 118.32C320.379 118.32 321.231 118.143 322.054 117.788C322.935 117.433 323.757 116.989 324.521 116.457C325.284 115.925 326.019 115.363 326.724 114.771C327.428 114.18 328.045 113.647 328.574 113.174L329.103 113.529C328.515 114.12 327.84 114.771 327.076 115.481C326.312 116.132 325.49 116.753 324.609 117.344C323.728 117.936 322.788 118.439 321.789 118.853C320.791 119.208 319.763 119.385 318.705 119.385C316.826 119.385 315.298 118.823 314.123 117.699C313.007 116.516 312.449 114.889 312.449 112.819C312.449 111.399 312.772 110.128 313.418 109.004L313.242 108.826C310.834 110.483 308.19 112.671 305.312 115.392C302.434 118.054 299.379 121.219 296.148 124.886C294.974 126.187 293.74 127.903 292.448 130.032C291.214 132.162 290.127 134.35 289.188 136.598H283.46C286.632 131.511 289.804 126.454 292.976 121.426C296.148 116.398 299.409 111.281 302.757 106.076H308.132Z" fill="white"/>
<path d="M361 113.706C359.238 116.546 357.182 119.385 354.832 122.224C352.541 125.004 350.015 127.518 347.254 129.766C344.494 132.014 341.468 133.848 338.179 135.267C334.948 136.628 331.482 137.308 327.782 137.308C326.372 137.308 325.05 137.131 323.816 136.776C322.583 136.421 321.496 135.888 320.556 135.179C319.675 134.469 318.97 133.581 318.442 132.517C317.854 131.393 317.56 130.091 317.56 128.613C317.56 127.075 318.06 125.685 319.058 124.442C320.057 123.2 321.408 122.579 323.112 122.579C323.993 122.579 324.698 122.816 325.226 123.289C325.814 123.703 326.107 124.354 326.107 125.241C326.107 126.069 325.902 126.779 325.491 127.37C325.079 127.962 324.463 128.258 323.64 128.258C322.994 128.258 322.465 128.08 322.054 127.725C321.702 127.37 321.467 126.927 321.349 126.394C320.703 126.749 320.263 127.282 320.028 127.992C319.793 128.642 319.675 129.322 319.675 130.032C319.675 132.103 320.439 133.67 321.966 134.735C323.552 135.74 325.314 136.243 327.253 136.243C328.486 136.243 329.544 136.007 330.425 135.533C331.365 135.001 332.128 134.35 332.716 133.581C333.362 132.753 333.832 131.807 334.126 130.742C334.419 129.677 334.566 128.613 334.566 127.548C334.566 126.424 334.361 125.271 333.949 124.088C333.597 122.845 333.186 121.633 332.716 120.45C332.246 119.267 331.805 118.113 331.394 116.989C330.983 115.806 330.777 114.712 330.777 113.706C330.777 112.405 331.042 111.252 331.57 110.246C332.099 109.181 332.804 108.294 333.685 107.584C334.625 106.874 335.682 106.342 336.857 105.987C338.032 105.573 339.266 105.366 340.558 105.366C342.908 105.366 344.817 105.898 346.285 106.963C347.754 107.969 348.488 109.329 348.488 111.045C348.488 112.582 347.901 113.706 346.726 114.416C345.61 115.126 344.347 115.481 342.937 115.481C343.289 114.83 343.583 114.061 343.818 113.174C344.112 112.228 344.259 111.37 344.259 110.601C344.259 109.418 343.877 108.442 343.113 107.673C342.408 106.845 341.38 106.431 340.029 106.431C338.326 106.431 337.063 106.963 336.24 108.028C335.418 109.033 335.007 110.276 335.007 111.754C335.007 113.056 335.212 114.298 335.624 115.481C336.093 116.664 336.622 117.847 337.21 119.03C337.738 120.213 338.208 121.426 338.619 122.668C339.089 123.91 339.324 125.3 339.324 126.838C339.324 127.962 339.06 129.056 338.531 130.121C338.061 131.127 337.415 132.073 336.593 132.96C335.77 133.788 334.831 134.498 333.773 135.09C332.775 135.681 331.747 136.066 330.689 136.243L330.865 136.421C334.038 136.066 337.063 135.149 339.941 133.67C342.819 132.132 345.492 130.299 347.959 128.169C350.485 125.98 352.806 123.614 354.92 121.071C357.035 118.468 358.885 115.925 360.471 113.44L361 113.706Z" fill="white"/>
</svg>
