<svg width="548" height="548" viewBox="0 0 548 548" fill="none" xmlns="http://www.w3.org/2000/svg">
<ellipse cx="274" cy="275.833" rx="162.201" ry="160.368" fill="#5D35FF" fill-opacity="0.47"/>
<circle cx="274" cy="274" r="186.027" fill="#5D35FF" fill-opacity="0.25"/>
<circle cx="274" cy="274" r="226.348" fill="#5D35FF" fill-opacity="0.13"/>
<circle cx="274" cy="274" r="274" fill="#5D35FF" fill-opacity="0.06"/>
<circle cx="274" cy="274.001" r="121.778" fill="url(#paint0_radial)"/>
<path d="M274.31 289.423C278.468 289.423 282.026 287.942 284.986 284.983C287.946 282.024 289.427 278.464 289.427 274.306V250.118C289.427 245.961 287.948 242.402 284.986 239.441C282.026 236.481 278.468 235 274.31 235C270.152 235 266.594 236.481 263.633 239.441C260.672 242.402 259.192 245.961 259.192 250.118V274.306C259.192 278.464 260.673 282.024 263.633 284.983C266.593 287.942 270.152 289.423 274.31 289.423Z" fill="white"/>
<path d="M300.623 266.134C300.026 265.535 299.316 265.236 298.497 265.236C297.679 265.236 296.97 265.535 296.371 266.134C295.773 266.732 295.474 267.441 295.474 268.259V274.307C295.474 280.134 293.403 285.117 289.261 289.259C285.121 293.401 280.136 295.472 274.309 295.472C268.482 295.472 263.498 293.401 259.356 289.259C255.215 285.119 253.144 280.134 253.144 274.307V268.259C253.144 267.441 252.845 266.732 252.247 266.134C251.648 265.535 250.94 265.236 250.121 265.236C249.302 265.236 248.593 265.535 247.995 266.134C247.396 266.732 247.097 267.441 247.097 268.259V274.307C247.097 281.267 249.42 287.322 254.065 292.471C258.71 297.621 264.45 300.573 271.285 301.328V307.565H259.191C258.372 307.565 257.664 307.865 257.066 308.463C256.467 309.061 256.168 309.77 256.168 310.589C256.168 311.407 256.467 312.117 257.066 312.715C257.664 313.313 258.372 313.613 259.191 313.613H289.426C290.245 313.613 290.954 313.313 291.552 312.715C292.151 312.117 292.45 311.407 292.45 310.589C292.45 309.77 292.151 309.061 291.552 308.463C290.954 307.865 290.245 307.565 289.426 307.565H277.333V301.328C284.167 300.573 289.907 297.621 294.552 292.471C299.198 287.322 301.522 281.267 301.522 274.307V268.259C301.522 267.441 301.222 266.733 300.623 266.134Z" fill="white"/>
<defs>
<radialGradient id="paint0_radial" cx="0" cy="0" r="1" gradientUnits="userSpaceOnUse" gradientTransform="translate(274.308 223.131) rotate(90) scale(200.394)">
<stop stop-color="#704DFF"/>
<stop offset="1" stop-color="#3814CB"/>
</radialGradient>
</defs>
</svg>
