<svg width="376" height="173" viewBox="0 0 376 173" fill="none" xmlns="http://www.w3.org/2000/svg">
<path d="M123.68 1.86742H95.6473V72.2127H123.68C143.003 72.2127 157.72 56.9377 157.72 37.04C157.72 17.1424 143.003 1.86742 123.68 1.86742ZM123.68 56.7367H111.666V17.3434H123.68C134.693 17.3434 142.302 24.9809 142.302 37.04C142.302 49.0992 134.693 56.7367 123.68 56.7367Z" fill="white"/>
<path d="M188.713 73.6196C203.931 73.6196 214.743 65.5801 214.743 52.0135C214.743 37.1405 202.829 33.4223 192.217 30.2065C181.304 26.8902 179.602 24.6794 179.602 21.4636C179.602 18.6498 182.105 16.1375 187.111 16.1375C193.519 16.1375 196.822 19.2527 199.225 24.2774L212.741 16.3384C207.635 5.98764 198.624 0.46051 187.111 0.46051C174.997 0.46051 163.584 8.29898 163.584 21.8656C163.584 35.3317 173.796 40.3563 184.208 43.2706C194.72 46.1849 198.725 47.8933 198.725 52.2145C198.725 54.9278 196.822 57.9426 189.214 57.9426C181.304 57.9426 176.999 54.0234 174.496 48.1948L160.68 56.2342C164.585 66.585 173.996 73.6196 188.713 73.6196Z" fill="white"/>
<path d="M255.699 73.6196C268.514 73.6196 279.727 67.2885 285.734 57.3397L271.918 49.3002C268.914 54.7268 262.807 57.9426 255.699 57.9426C243.284 57.9426 235.275 49.6017 235.275 37.04C235.275 24.4784 243.284 16.1375 255.699 16.1375C262.807 16.1375 268.814 19.3532 271.918 24.7799L285.734 16.7404C279.627 6.79158 268.414 0.46051 255.699 0.46051C234.574 0.46051 219.256 16.3384 219.256 37.04C219.256 57.7416 234.574 73.6196 255.699 73.6196Z" fill="white"/>
<path d="M43.9288 114.94H49.8941C47.6304 118.133 45.4584 121.234 43.3782 124.244C41.298 127.253 39.4319 130.047 37.78 132.626C36.1892 135.144 34.9044 137.386 33.9255 139.351C32.9466 141.255 32.4571 142.759 32.4571 143.865C32.4571 145.462 33.2831 146.26 34.935 146.26C36.2198 146.26 37.8412 145.646 39.799 144.418C41.818 143.128 43.99 141.378 46.3149 139.167C48.6399 136.956 51.026 134.377 53.4733 131.429C55.9206 128.481 58.2455 125.349 60.4481 122.033L60.9987 122.217C59.3468 124.735 57.389 127.468 55.1252 130.415C52.9226 133.302 50.5977 136.004 48.1504 138.522C45.7031 141.04 43.2558 143.159 40.8085 144.878C38.3612 146.536 36.0669 147.365 33.9255 147.365C32.1512 147.365 30.8358 146.935 29.9792 146.076C29.1838 145.154 28.7861 144.08 28.7861 142.852C28.7861 141.992 28.9085 141.163 29.1532 140.364C29.4591 139.505 29.7651 138.645 30.071 137.785L29.8874 137.693C29.0921 138.553 28.0825 139.566 26.8589 140.733C25.6964 141.838 24.4116 142.882 23.0044 143.865C21.6584 144.847 20.2512 145.676 18.7828 146.352C17.3144 147.028 15.9072 147.365 14.5612 147.365C12.2975 147.365 10.7067 146.659 9.78897 145.247C8.87123 143.834 8.41236 142.237 8.41236 140.456C8.41236 137.939 9.20773 135.175 10.7985 132.166C12.3892 129.095 14.4082 126.239 16.8556 123.599C19.3029 120.897 21.9643 118.655 24.8399 116.874C27.7154 115.093 30.4381 114.203 33.0077 114.203C34.2314 114.203 35.3021 114.387 36.2198 114.755C37.1376 115.062 37.9023 115.523 38.5142 116.137C39.126 116.69 39.5849 117.335 39.8908 118.072C40.2579 118.809 40.5332 119.576 40.7167 120.375H40.9003L43.9288 114.94ZM13.9188 140.733C13.9188 142.145 14.1941 143.251 14.7448 144.049C15.3566 144.786 16.1825 145.154 17.2226 145.154C18.2627 145.154 19.4864 144.786 20.8936 144.049C22.3008 143.251 23.7692 142.207 25.2987 140.917C26.8283 139.627 28.3273 138.153 29.7957 136.495C31.3252 134.776 32.6712 132.964 33.8337 131.06C34.9962 129.157 35.9445 127.222 36.6787 125.257C37.4129 123.292 37.78 121.419 37.78 119.638C37.78 118.225 37.3823 117.15 36.5869 116.413C35.7915 115.676 34.8126 115.308 33.6501 115.308C31.8147 115.308 29.7651 116.106 27.5013 117.703C25.2376 119.3 23.0962 121.357 21.0771 123.875C19.0581 126.332 17.345 129.064 15.9378 132.074C14.5918 135.083 13.9188 137.969 13.9188 140.733Z" fill="white"/>
<path d="M58.5517 116.045V114.94H65.6183C68.0044 111.132 70.4517 107.294 72.9602 103.425C75.4686 99.5558 78.0995 96.086 80.8527 93.0154C83.6059 89.8834 86.4815 87.3655 89.4794 85.4617C92.4774 83.4965 95.6283 82.5139 98.9321 82.5139C100.89 82.5139 102.481 82.9438 103.704 83.8035C104.928 84.6019 105.54 85.8609 105.54 87.5804C105.54 89.0543 105.081 90.2826 104.163 91.2652C103.245 92.1864 102.083 92.7084 100.676 92.8312C100.921 91.9714 101.104 91.173 101.226 90.4361C101.41 89.6377 101.502 88.7165 101.502 87.6725C101.502 86.4443 101.196 85.4617 100.584 84.7247C100.033 83.9878 99.0545 83.6193 97.6473 83.6193C95.3835 83.6193 93.0586 84.6633 90.6725 86.7513C88.3476 88.778 86.0226 91.3573 83.6977 94.4893C81.4339 97.6214 79.2008 101.03 76.9982 104.714C74.8568 108.338 72.8072 111.746 70.8494 114.94H91.5902V116.045H70.2987C64.4252 126.117 59.1635 134.745 54.5136 141.93C49.8638 149.116 45.3974 155.011 41.1147 159.617C36.8319 164.223 32.5491 167.601 28.2663 169.75C23.9835 171.9 19.2419 172.974 14.0414 172.974C12.2059 172.974 10.4622 172.729 8.81028 172.237C7.09717 171.808 5.5982 171.132 4.31337 170.211C3.02854 169.29 1.98843 168.123 1.19306 166.71C0.397687 165.359 0 163.762 0 161.92C0 159.525 0.764783 157.468 2.29435 155.748C3.76273 154.09 6.27121 153.261 9.8198 153.261H10.6458V153.998C8.81028 154.121 7.25013 154.827 5.96529 156.117C4.68046 157.406 4.03805 159.187 4.03805 161.46C4.03805 164.653 4.92519 167.171 6.69949 169.013C8.47378 170.917 11.074 171.869 14.5003 171.869C17.8041 171.869 20.955 171.101 23.953 169.566C26.9509 168.092 29.8571 166.035 32.6715 163.394C35.4247 160.753 38.1473 157.652 40.8393 154.09C43.4702 150.528 46.1316 146.69 48.8237 142.575C51.4545 138.399 54.1159 134.07 56.808 129.586C59.5 125.042 62.2532 120.528 65.0676 116.045H58.5517Z" fill="white"/>
<path d="M102.207 104.254L94.9565 114.94H107.071L106.52 116.045H94.2223C91.775 120.037 89.5724 123.507 87.6146 126.454C85.7179 129.341 84.0966 131.859 82.7505 134.008C81.4657 136.096 80.4868 137.877 79.8138 139.351C79.1408 140.763 78.8043 142.022 78.8043 143.128C78.8043 144.295 79.202 145.124 79.9973 145.615C80.7927 146.045 81.7104 146.26 82.7505 146.26C84.9531 146.26 87.3698 145.431 90.0007 143.773C92.6927 142.053 95.3542 139.965 97.985 137.509C100.616 135.052 103.124 132.442 105.51 129.679C107.897 126.915 109.916 124.428 111.568 122.217L112.118 122.585C110.038 125.226 107.744 128.02 105.235 130.968C102.788 133.855 100.249 136.526 97.6179 138.983C94.987 141.378 92.3256 143.374 89.6336 144.97C87.0027 146.567 84.4942 147.365 82.1081 147.365C80.2115 147.365 78.5595 146.782 77.1523 145.615C75.8063 144.448 75.1333 142.821 75.1333 140.733C75.1333 139.32 75.531 137.754 76.3264 136.035C77.1217 134.254 78.1619 132.35 79.4467 130.323C80.7315 128.297 82.1693 126.086 83.7601 123.691C85.412 121.296 87.0945 118.747 88.8076 116.045H83.8518L84.4025 114.94H89.5418L96.7002 104.254H102.207Z" fill="white"/>
<path d="M130.869 117.887C130.869 117.028 130.625 116.383 130.135 115.953C129.707 115.523 129.156 115.308 128.483 115.308C127.198 115.308 125.791 115.83 124.262 116.874C122.793 117.857 121.325 119.116 119.857 120.651C118.388 122.125 117.042 123.722 115.818 125.441C114.656 127.161 113.769 128.696 113.157 130.047C114.503 129.801 116.186 129.341 118.205 128.665C120.224 127.928 122.151 127.038 123.986 125.994C125.883 124.95 127.504 123.752 128.85 122.401C130.196 120.989 130.869 119.484 130.869 117.887ZM145.737 122.77C144.819 124.305 143.657 125.994 142.249 127.836C140.903 129.679 139.343 131.521 137.569 133.363C135.856 135.144 133.99 136.895 131.971 138.614C130.013 140.272 127.963 141.777 125.822 143.128C123.68 144.418 121.508 145.462 119.306 146.26C117.165 146.997 115.054 147.365 112.974 147.365C110.404 147.365 108.415 146.721 107.008 145.431C105.601 144.08 104.897 142.176 104.897 139.719C104.897 137.017 105.693 134.192 107.284 131.245C108.935 128.235 111.016 125.472 113.524 122.954C116.033 120.436 118.786 118.348 121.784 116.69C124.782 115.032 127.657 114.203 130.411 114.203C131.94 114.203 133.133 114.54 133.99 115.216C134.846 115.83 135.275 116.751 135.275 117.979C135.275 119.453 134.479 120.897 132.888 122.309C131.298 123.66 129.34 124.919 127.015 126.086C124.751 127.191 122.304 128.205 119.673 129.126C117.042 129.986 114.717 130.63 112.698 131.06C112.025 132.289 111.475 133.67 111.046 135.206C110.618 136.741 110.404 138.276 110.404 139.812C110.404 140.549 110.465 141.286 110.587 142.022C110.771 142.698 111.016 143.343 111.322 143.957C111.689 144.51 112.148 144.97 112.698 145.339C113.31 145.707 114.044 145.891 114.901 145.891C116.92 145.891 119.275 145.247 121.967 143.957C124.721 142.606 127.504 140.825 130.319 138.614C133.133 136.403 135.825 133.885 138.395 131.06C140.965 128.235 143.167 125.318 145.003 122.309L145.737 122.77Z" fill="white"/>
<path d="M157.026 114.94L145.37 131.982L145.554 132.166C146.41 131.122 147.481 129.924 148.766 128.573C150.112 127.161 151.55 125.748 153.079 124.336C154.67 122.862 156.322 121.419 158.035 120.006C159.748 118.594 161.431 117.335 163.083 116.229C163.389 115.615 163.725 115.124 164.092 114.755C164.459 114.387 165.194 114.203 166.295 114.203C166.968 114.203 167.549 114.233 168.038 114.295C168.589 114.295 169.14 114.325 169.69 114.387C168.65 115.431 167.641 116.72 166.662 118.256C165.683 119.73 165.194 121.357 165.194 123.138C165.194 124.551 165.53 125.656 166.203 126.454C166.937 127.253 167.824 127.652 168.864 127.652C169.782 127.652 170.669 127.468 171.526 127.099C172.444 126.731 173.3 126.27 174.096 125.717C174.891 125.165 175.656 124.581 176.39 123.967C177.124 123.353 177.767 122.8 178.317 122.309L178.868 122.678C178.256 123.292 177.552 123.967 176.757 124.704C175.962 125.38 175.105 126.024 174.187 126.639C173.27 127.253 172.291 127.775 171.251 128.205C170.21 128.573 169.14 128.757 168.038 128.757C166.081 128.757 164.49 128.174 163.266 127.007C162.104 125.779 161.523 124.09 161.523 121.941C161.523 120.467 161.859 119.146 162.532 117.979L162.349 117.795C159.84 119.515 157.087 121.787 154.089 124.612C151.091 127.376 147.909 130.661 144.544 134.469C143.321 135.82 142.036 137.601 140.69 139.812C139.405 142.022 138.273 144.295 137.294 146.628H131.329C134.633 141.347 137.937 136.096 141.241 130.876C144.544 125.656 147.94 120.344 151.427 114.94H157.026Z" fill="white"/>
<path d="M211.632 82.8824L179.144 131.337L179.327 131.521C180.551 129.986 181.989 128.235 183.641 126.27C185.293 124.244 187.067 122.34 188.964 120.559C190.921 118.778 192.971 117.273 195.112 116.045C197.254 114.817 199.395 114.203 201.537 114.203C205.269 114.203 207.135 116.076 207.135 119.822C207.135 120.804 206.768 121.971 206.034 123.322C205.361 124.673 204.473 126.117 203.372 127.652C202.332 129.126 201.2 130.63 199.976 132.166C198.753 133.701 197.59 135.206 196.489 136.68C195.449 138.092 194.562 139.443 193.828 140.733C193.155 141.961 192.818 143.005 192.818 143.865C192.818 144.54 193.002 145.124 193.369 145.615C193.797 146.045 194.348 146.26 195.021 146.26C196.428 146.26 197.957 145.83 199.609 144.97C201.323 144.049 203.066 142.882 204.84 141.47C206.676 139.996 208.481 138.368 210.255 136.587C212.029 134.806 213.651 133.056 215.119 131.337C216.649 129.556 217.995 127.898 219.157 126.362C220.381 124.766 221.268 123.476 221.819 122.493L222.369 122.678C221.696 123.844 220.748 125.257 219.524 126.915C218.301 128.573 216.893 130.323 215.303 132.166C213.773 134.008 212.091 135.85 210.255 137.693C208.481 139.474 206.676 141.101 204.84 142.575C203.066 143.988 201.292 145.154 199.518 146.076C197.743 146.935 196.091 147.365 194.562 147.365C192.971 147.365 191.656 146.874 190.616 145.891C189.637 144.909 189.147 143.558 189.147 141.838C189.147 140.61 189.484 139.259 190.157 137.785C190.891 136.311 191.778 134.837 192.818 133.363C193.919 131.828 195.082 130.323 196.306 128.849C197.529 127.314 198.661 125.871 199.701 124.52C200.802 123.169 201.69 121.941 202.363 120.835C203.097 119.668 203.464 118.686 203.464 117.887C203.464 116.905 203.189 116.229 202.638 115.861C202.087 115.492 201.414 115.308 200.619 115.308C199.089 115.308 197.376 115.891 195.48 117.058C193.644 118.164 191.717 119.638 189.698 121.48C187.74 123.322 185.782 125.41 183.824 127.744C181.866 130.016 180 132.319 178.226 134.653C176.513 136.987 174.983 139.197 173.637 141.286C172.353 143.374 171.343 145.154 170.609 146.628H164.644C168.009 141.347 171.465 135.973 175.014 130.508C178.563 125.042 182.081 119.607 185.568 114.203C189.117 108.798 192.573 103.486 195.938 98.2662C199.303 92.9847 202.485 87.9489 205.483 83.1587L211.632 82.8824Z" fill="white"/>
<path d="M265.717 123.322C264.249 124.98 262.597 126.301 260.762 127.283C258.926 128.266 257.121 128.757 255.347 128.757C253.634 128.757 252.165 128.389 250.942 127.652C249.718 126.854 248.77 125.932 248.097 124.888H247.913C247.301 127.222 246.17 129.709 244.518 132.35C242.866 134.991 240.877 137.417 238.552 139.627C236.289 141.838 233.78 143.681 231.027 145.154C228.274 146.628 225.459 147.365 222.584 147.365C219.953 147.365 217.964 146.598 216.618 145.062C215.272 143.527 214.599 141.47 214.599 138.89C214.599 137.539 214.936 135.973 215.609 134.192C216.282 132.411 217.2 130.63 218.362 128.849C219.586 127.007 220.993 125.226 222.584 123.507C224.236 121.726 226.01 120.16 227.907 118.809C229.803 117.396 231.792 116.291 233.872 115.492C236.013 114.632 238.155 114.203 240.296 114.203C242.805 114.203 244.732 114.94 246.078 116.413C247.485 117.887 248.25 119.791 248.372 122.125C248.494 123.537 249.137 124.858 250.299 126.086C251.523 127.253 253.175 127.836 255.255 127.836C257.091 127.836 258.804 127.376 260.394 126.454C262.046 125.533 263.576 124.336 264.983 122.862L265.717 123.322ZM219.555 141.101C219.555 142.698 219.861 143.957 220.473 144.878C221.085 145.799 222.002 146.26 223.226 146.26C224.878 146.26 226.499 145.83 228.09 144.97C229.742 144.049 231.302 142.882 232.771 141.47C234.3 139.996 235.707 138.338 236.992 136.495C238.277 134.653 239.378 132.749 240.296 130.784C241.275 128.819 242.04 126.915 242.59 125.073C243.141 123.169 243.416 121.449 243.416 119.914C243.416 118.624 243.08 117.55 242.407 116.69C241.795 115.769 240.816 115.308 239.47 115.308C238.185 115.308 236.809 115.738 235.34 116.598C233.872 117.396 232.373 118.471 230.843 119.822C229.375 121.173 227.968 122.739 226.622 124.52C225.276 126.301 224.052 128.143 222.951 130.047C221.911 131.951 221.085 133.855 220.473 135.758C219.861 137.662 219.555 139.443 219.555 141.101Z" fill="white"/>
<path d="M278.321 114.94C275.935 118.194 273.641 121.296 271.438 124.244C269.236 127.191 267.278 129.893 265.565 132.35C263.852 134.806 262.475 136.956 261.435 138.798C260.456 140.579 259.966 141.992 259.966 143.036C259.966 144.018 260.211 144.755 260.701 145.247C261.19 145.676 261.832 145.891 262.628 145.891C263.79 145.891 265.045 145.523 266.391 144.786C267.798 144.049 269.205 143.097 270.612 141.93C272.081 140.764 273.488 139.474 274.834 138.061C276.241 136.649 277.526 135.267 278.688 133.916C279.912 132.504 280.952 131.214 281.809 130.047C282.726 128.88 283.399 127.959 283.828 127.283L291.904 114.94H298.236C294.932 119.484 292.118 123.353 289.793 126.547C287.529 129.679 285.663 132.35 284.195 134.561C282.788 136.772 281.778 138.583 281.166 139.996C280.554 141.347 280.248 142.544 280.248 143.588C280.248 144.325 280.463 144.97 280.891 145.523C281.319 146.014 281.931 146.26 282.726 146.26C283.95 146.26 285.357 145.83 286.948 144.97C288.539 144.049 290.191 142.882 291.904 141.47C293.617 139.996 295.299 138.368 296.951 136.587C298.664 134.745 300.255 132.933 301.723 131.152C303.253 129.371 304.63 127.713 305.853 126.178C307.077 124.581 308.025 123.292 308.698 122.309L309.616 122.585C308.882 123.629 307.903 124.98 306.679 126.639C305.456 128.235 304.079 129.955 302.549 131.797C301.02 133.578 299.399 135.421 297.685 137.324C295.972 139.167 294.198 140.825 292.363 142.299C290.588 143.773 288.814 145.001 287.04 145.984C285.327 146.905 283.705 147.365 282.176 147.365C280.463 147.365 279.086 146.905 278.046 145.984C277.067 145.001 276.577 143.711 276.577 142.115C276.577 140.886 276.761 139.719 277.128 138.614C277.556 137.447 277.862 136.71 278.046 136.403L277.862 136.219C276.577 137.693 275.231 139.105 273.824 140.456C272.417 141.808 271.01 143.005 269.603 144.049C268.195 145.032 266.758 145.83 265.289 146.444C263.882 147.058 262.475 147.365 261.068 147.365C259.11 147.365 257.703 146.935 256.846 146.076C255.99 145.154 255.561 144.08 255.561 142.852C255.561 141.316 255.99 139.658 256.846 137.877C257.641 136.096 258.773 134.1 260.242 131.889C261.71 129.679 263.454 127.191 265.473 124.428C267.553 121.664 269.817 118.501 272.264 114.94H278.321Z" fill="white"/>
<path d="M320.935 114.94L309.28 131.982L309.463 132.166C310.32 131.122 311.391 129.924 312.675 128.573C314.021 127.161 315.459 125.748 316.989 124.336C318.58 122.862 320.231 121.419 321.945 120.006C323.658 118.594 325.34 117.335 326.992 116.229C327.298 115.615 327.635 115.124 328.002 114.755C328.369 114.387 329.103 114.203 330.204 114.203C330.877 114.203 331.458 114.233 331.948 114.295C332.499 114.295 333.049 114.325 333.6 114.387C332.56 115.431 331.55 116.72 330.571 118.256C329.592 119.73 329.103 121.357 329.103 123.138C329.103 124.551 329.439 125.656 330.112 126.454C330.847 127.253 331.734 127.652 332.774 127.652C333.692 127.652 334.579 127.468 335.435 127.099C336.353 126.731 337.21 126.27 338.005 125.717C338.8 125.165 339.565 124.581 340.299 123.967C341.033 123.353 341.676 122.8 342.227 122.309L342.777 122.678C342.165 123.292 341.462 123.967 340.666 124.704C339.871 125.38 339.014 126.024 338.097 126.639C337.179 127.253 336.2 127.775 335.16 128.205C334.12 128.573 333.049 128.757 331.948 128.757C329.99 128.757 328.399 128.174 327.176 127.007C326.013 125.779 325.432 124.09 325.432 121.941C325.432 120.467 325.768 119.146 326.441 117.979L326.258 117.795C323.749 119.515 320.996 121.787 317.998 124.612C315 127.376 311.819 130.661 308.454 134.469C307.23 135.82 305.945 137.601 304.599 139.812C303.314 142.022 302.183 144.295 301.204 146.628H295.238C298.542 141.347 301.846 136.096 305.15 130.876C308.454 125.656 311.849 120.344 315.337 114.94H320.935Z" fill="white"/>
<path d="M376 122.862C374.165 125.81 372.023 128.757 369.576 131.705C367.19 134.592 364.559 137.202 361.683 139.535C358.808 141.869 355.657 143.773 352.231 145.247C348.866 146.659 345.256 147.365 341.401 147.365C339.933 147.365 338.556 147.181 337.272 146.813C335.987 146.444 334.855 145.891 333.876 145.154C332.958 144.418 332.224 143.496 331.673 142.391C331.061 141.224 330.756 139.873 330.756 138.338C330.756 136.741 331.276 135.298 332.316 134.008C333.356 132.718 334.763 132.074 336.537 132.074C337.455 132.074 338.189 132.319 338.74 132.811C339.352 133.24 339.658 133.916 339.658 134.837C339.658 135.697 339.443 136.434 339.015 137.048C338.587 137.662 337.945 137.969 337.088 137.969C336.415 137.969 335.864 137.785 335.436 137.417C335.069 137.048 334.824 136.587 334.702 136.035C334.029 136.403 333.57 136.956 333.325 137.693C333.081 138.368 332.958 139.075 332.958 139.812C332.958 141.961 333.753 143.588 335.344 144.694C336.996 145.738 338.832 146.26 340.851 146.26C342.135 146.26 343.237 146.014 344.155 145.523C345.133 144.97 345.929 144.295 346.541 143.496C347.214 142.637 347.703 141.654 348.009 140.549C348.315 139.443 348.468 138.338 348.468 137.232C348.468 136.065 348.254 134.868 347.825 133.64C347.458 132.35 347.03 131.091 346.541 129.863C346.051 128.635 345.592 127.437 345.164 126.27C344.736 125.042 344.522 123.906 344.522 122.862C344.522 121.511 344.797 120.313 345.348 119.269C345.898 118.164 346.632 117.242 347.55 116.506C348.529 115.769 349.63 115.216 350.854 114.847C352.078 114.418 353.363 114.203 354.709 114.203C357.156 114.203 359.144 114.755 360.674 115.861C362.203 116.905 362.968 118.317 362.968 120.098C362.968 121.695 362.356 122.862 361.133 123.599C359.97 124.336 358.655 124.704 357.186 124.704C357.553 124.029 357.859 123.23 358.104 122.309C358.41 121.326 358.563 120.436 358.563 119.638C358.563 118.409 358.165 117.396 357.37 116.598C356.636 115.738 355.565 115.308 354.158 115.308C352.384 115.308 351.068 115.861 350.212 116.966C349.355 118.01 348.927 119.3 348.927 120.835C348.927 122.186 349.141 123.476 349.569 124.704C350.059 125.932 350.609 127.161 351.221 128.389C351.772 129.617 352.261 130.876 352.689 132.166C353.179 133.455 353.424 134.899 353.424 136.495C353.424 137.662 353.148 138.798 352.598 139.904C352.108 140.948 351.435 141.93 350.579 142.852C349.722 143.711 348.743 144.448 347.642 145.062C346.602 145.676 345.531 146.076 344.43 146.26L344.613 146.444C347.917 146.076 351.068 145.124 354.066 143.588C357.064 141.992 359.848 140.088 362.418 137.877C365.048 135.605 367.465 133.148 369.668 130.508C371.87 127.805 373.797 125.165 375.449 122.585L376 122.862Z" fill="white"/>
</svg>
