<svg width="591" height="91" viewBox="0 0 591 91" fill="none" xmlns="http://www.w3.org/2000/svg">
<path d="M28.0327 11.3535H0V81.6988H28.0327C47.3553 81.6988 62.0724 66.4238 62.0724 46.5262C62.0724 26.6285 47.3553 11.3535 28.0327 11.3535ZM28.0327 66.2228H16.0187V26.8295H28.0327C39.0456 26.8295 46.6545 34.467 46.6545 46.5262C46.6545 58.5854 39.0456 66.2228 28.0327 66.2228Z" fill="white"/>
<path d="M93.0656 83.1057C108.283 83.1057 119.096 75.0662 119.096 61.4996C119.096 46.6267 107.182 42.9084 96.5697 39.6926C85.657 36.3764 83.955 34.1655 83.955 30.9497C83.955 28.1359 86.4579 25.6236 91.4638 25.6236C97.8712 25.6236 101.175 28.7389 103.578 33.7635L117.094 25.8246C111.988 15.4738 102.977 9.94663 91.4638 9.94663C79.3496 9.94663 67.9363 17.7851 67.9363 31.3517C67.9363 44.8178 78.1482 49.8424 88.5604 52.7567C99.0726 55.671 103.077 57.3794 103.077 61.7006C103.077 64.414 101.175 67.4288 93.5662 67.4288C85.657 67.4288 81.352 63.5095 78.849 57.6809L65.0329 65.7204C68.9375 76.0712 78.3485 83.1057 93.0656 83.1057Z" fill="white"/>
<path d="M160.052 83.1057C172.867 83.1057 184.08 76.7746 190.087 66.8258L176.271 58.7863C173.267 64.213 167.16 67.4288 160.052 67.4288C147.637 67.4288 139.628 59.0878 139.628 46.5262C139.628 33.9645 147.637 25.6236 160.052 25.6236C167.16 25.6236 173.167 28.8394 176.271 34.266L190.087 26.2265C183.98 16.2777 172.766 9.94663 160.052 9.94663C138.927 9.94663 123.609 25.8246 123.609 46.5262C123.609 67.2278 138.927 83.1057 160.052 83.1057Z" fill="white"/>
<path d="M258.281 32.4257H264.247C261.983 35.6191 259.811 38.7204 257.731 41.7296C255.651 44.7389 253.785 47.5331 252.133 50.1125C250.542 52.6304 249.257 54.8719 248.278 56.8371C247.299 58.7409 246.81 60.2455 246.81 61.3509C246.81 62.9477 247.636 63.746 249.288 63.746C250.573 63.746 252.194 63.1319 254.152 61.9037C256.171 60.614 258.343 58.8638 260.668 56.6529C262.993 54.4421 265.379 51.8627 267.826 48.9149C270.273 45.9671 272.598 42.8351 274.801 39.5188L275.351 39.703C273.7 42.2209 271.742 44.9538 269.478 47.9016C267.275 50.788 264.95 53.4901 262.503 56.008C260.056 58.526 257.608 60.6447 255.161 62.3643C252.714 64.0224 250.42 64.8515 248.278 64.8515C246.504 64.8515 245.188 64.4216 244.332 63.5618C243.537 62.6406 243.139 61.5659 243.139 60.3377C243.139 59.4779 243.261 58.6488 243.506 57.8504C243.812 56.9907 244.118 56.1309 244.424 55.2711L244.24 55.179C243.445 56.0388 242.435 57.0521 241.212 58.2189C240.049 59.3243 238.764 60.3683 237.357 61.3509C236.011 62.3335 234.604 63.1626 233.135 63.8381C231.667 64.5137 230.26 64.8515 228.914 64.8515C226.65 64.8515 225.059 64.1452 224.142 62.7327C223.224 61.3202 222.765 59.7235 222.765 57.9426C222.765 55.4246 223.56 52.6611 225.151 49.6519C226.742 46.5812 228.761 43.7256 231.208 41.0848C233.656 38.3827 236.317 36.1411 239.193 34.3601C242.068 32.5792 244.791 31.6887 247.36 31.6887C248.584 31.6887 249.655 31.8729 250.573 32.2414C251.49 32.5485 252.255 33.0091 252.867 33.6232C253.479 34.1759 253.938 34.8207 254.243 35.5577C254.611 36.2946 254.886 37.0623 255.069 37.8607H255.253L258.281 32.4257ZM228.271 58.2189C228.271 59.6314 228.547 60.7368 229.097 61.5352C229.709 62.2721 230.535 62.6406 231.575 62.6406C232.615 62.6406 233.839 62.2721 235.246 61.5352C236.653 60.7368 238.122 59.6928 239.651 58.4031C241.181 57.1135 242.68 55.6396 244.148 53.9815C245.678 52.2619 247.024 50.4502 248.186 48.5464C249.349 46.6427 250.297 44.7082 251.031 42.743C251.766 40.7778 252.133 38.9047 252.133 37.1237C252.133 35.7112 251.735 34.6365 250.94 33.8996C250.144 33.1626 249.165 32.7941 248.003 32.7941C246.167 32.7941 244.118 33.5925 241.854 35.1892C239.59 36.7859 237.449 38.8433 235.43 41.3612C233.411 43.8177 231.698 46.5505 230.291 49.5597C228.945 52.5689 228.271 55.4553 228.271 58.2189Z" fill="white"/>
<path d="M272.904 33.5311V32.4257H279.971C282.357 28.6181 284.804 24.7799 287.313 20.9109C289.821 17.0419 292.452 13.5722 295.205 10.5015C297.959 7.3695 300.834 4.85159 303.832 2.9478C306.83 0.982599 309.981 0 313.285 0C315.243 0 316.833 0.429882 318.057 1.28966C319.281 2.08802 319.893 3.34698 319.893 5.06653C319.893 6.54043 319.434 7.76869 318.516 8.75129C317.598 9.67248 316.436 10.1945 315.029 10.3173C315.273 9.45753 315.457 8.65917 315.579 7.92222C315.763 7.12385 315.854 6.20267 315.854 5.15865C315.854 3.9304 315.549 2.9478 314.937 2.21085C314.386 1.4739 313.407 1.10543 312 1.10543C309.736 1.10543 307.411 2.14944 305.025 4.23746C302.7 6.26408 300.375 8.8434 298.05 11.9754C295.787 15.1075 293.553 18.5157 291.351 22.2005C289.21 25.8238 287.16 29.2322 285.202 32.4257H305.943V33.5311H284.651C278.778 43.6027 273.516 52.2312 268.866 59.4165C264.216 66.6017 259.75 72.4973 255.467 77.1033C251.185 81.7092 246.902 85.0869 242.619 87.2363C238.336 89.3858 233.595 90.4605 228.394 90.4605C226.559 90.4605 224.815 90.2148 223.163 89.7235C221.45 89.2936 219.951 88.6181 218.666 87.6969C217.381 86.7757 216.341 85.6089 215.546 84.1964C214.75 82.8453 214.353 81.2486 214.353 79.4062C214.353 77.0112 215.117 74.9538 216.647 73.2343C218.115 71.5761 220.624 70.7471 224.173 70.7471H224.998V71.484C223.163 71.6068 221.603 72.3131 220.318 73.6027C219.033 74.8924 218.391 76.6734 218.391 78.9456C218.391 82.1391 219.278 84.657 221.052 86.4994C222.826 88.4032 225.427 89.355 228.853 89.355C232.157 89.355 235.308 88.5874 238.306 87.0521C241.304 85.5782 244.21 83.5209 247.024 80.8801C249.777 78.2394 252.5 75.138 255.192 71.5761C257.823 68.0142 260.484 64.1759 263.176 60.0613C265.807 55.8852 268.469 51.5556 271.161 47.0725C273.853 42.528 276.606 38.0142 279.42 33.5311H272.904Z" fill="white"/>
<path d="M316.559 21.7399L309.309 32.4257H321.423L320.873 33.5311H308.575C306.128 37.5229 303.925 40.9927 301.967 43.9405C300.071 46.8269 298.449 49.3448 297.103 51.4942C295.818 53.5823 294.84 55.3632 294.167 56.8371C293.493 58.2496 293.157 59.5086 293.157 60.614C293.157 61.7808 293.555 62.6099 294.35 63.1012C295.145 63.5311 296.063 63.746 297.103 63.746C299.306 63.746 301.723 62.917 304.353 61.2588C307.045 59.5393 309.707 57.4512 312.338 54.9947C314.969 52.5382 317.477 49.9282 319.863 47.1646C322.249 44.4011 324.268 41.9139 325.92 39.703L326.471 40.0715C324.391 42.7122 322.096 45.5065 319.588 48.4543C317.141 51.3407 314.601 54.0121 311.971 56.4687C309.34 58.8637 306.678 60.8596 303.986 62.4564C301.355 64.0531 298.847 64.8515 296.461 64.8515C294.564 64.8515 292.912 64.2681 291.505 63.1012C290.159 61.9344 289.486 60.3069 289.486 58.2189C289.486 56.8064 289.884 55.2404 290.679 53.5209C291.474 51.7399 292.515 49.8361 293.799 47.8095C295.084 45.7829 296.522 43.572 298.113 41.1769C299.765 38.7819 301.447 36.2332 303.16 33.5311H298.205L298.755 32.4257H303.895L311.053 21.7399H316.559Z" fill="white"/>
<path d="M345.222 35.3734C345.222 34.5137 344.977 33.8689 344.488 33.439C344.06 33.0091 343.509 32.7941 342.836 32.7941C341.551 32.7941 340.144 33.3161 338.614 34.3601C337.146 35.3427 335.678 36.6017 334.209 38.137C332.741 39.6109 331.395 41.2076 330.171 42.9272C329.009 44.6467 328.122 46.182 327.51 47.5331C328.856 47.2875 330.538 46.8269 332.557 46.1513C334.576 45.4144 336.504 44.5239 338.339 43.4799C340.236 42.4359 341.857 41.2383 343.203 39.8873C344.549 38.4748 345.222 36.9702 345.222 35.3734ZM360.089 40.2558C359.172 41.7911 358.009 43.4799 356.602 45.3223C355.256 47.1647 353.696 49.007 351.922 50.8494C350.208 52.6304 348.342 54.3806 346.323 56.1002C344.366 57.7583 342.316 59.2629 340.175 60.614C338.033 61.9037 335.861 62.9477 333.659 63.746C331.517 64.483 329.406 64.8515 327.326 64.8515C324.757 64.8515 322.768 64.2066 321.361 62.917C319.954 61.5659 319.25 59.6621 319.25 57.2056C319.25 54.5035 320.045 51.6785 321.636 48.7307C323.288 45.7214 325.368 42.9579 327.877 40.44C330.385 37.9221 333.139 35.834 336.137 34.1759C339.134 32.5178 342.01 31.6887 344.763 31.6887C346.293 31.6887 347.486 32.0265 348.342 32.702C349.199 33.3161 349.627 34.2373 349.627 35.4656C349.627 36.9395 348.832 38.3827 347.241 39.7952C345.65 41.1462 343.693 42.4052 341.368 43.572C339.104 44.6775 336.657 45.6908 334.026 46.6119C331.395 47.4717 329.07 48.1166 327.051 48.5464C326.378 49.7747 325.827 51.1565 325.399 52.6918C324.971 54.2271 324.757 55.7624 324.757 57.2977C324.757 58.0347 324.818 58.7716 324.94 59.5086C325.124 60.1841 325.368 60.8289 325.674 61.4431C326.041 61.9958 326.5 62.4564 327.051 62.8249C327.663 63.1933 328.397 63.3776 329.253 63.3776C331.272 63.3776 333.628 62.7327 336.32 61.4431C339.073 60.092 341.857 58.311 344.671 56.1002C347.486 53.8893 350.178 51.3714 352.748 48.5464C355.317 45.7215 357.52 42.8044 359.355 39.7952L360.089 40.2558Z" fill="white"/>
<path d="M371.378 32.4257L359.723 49.4676L359.907 49.6519C360.763 48.6078 361.834 47.4103 363.119 46.0592C364.465 44.6468 365.902 43.2342 367.432 41.8218C369.023 40.3479 370.675 38.9047 372.388 37.4922C374.101 36.0797 375.784 34.8207 377.435 33.7153C377.741 33.1012 378.078 32.6099 378.445 32.2414C378.812 31.8729 379.546 31.6887 380.647 31.6887C381.32 31.6887 381.902 31.7194 382.391 31.7808C382.942 31.7808 383.492 31.8115 384.043 31.8729C383.003 32.917 381.993 34.2066 381.015 35.7419C380.036 37.2158 379.546 38.8433 379.546 40.6242C379.546 42.0367 379.883 43.1421 380.556 43.9405C381.29 44.7389 382.177 45.138 383.217 45.138C384.135 45.138 385.022 44.9538 385.879 44.5853C386.796 44.2169 387.653 43.7562 388.448 43.2035C389.244 42.6508 390.008 42.0674 390.743 41.4533C391.477 40.8392 392.119 40.2864 392.67 39.7952L393.22 40.1636C392.609 40.7778 391.905 41.4533 391.11 42.1902C390.314 42.8658 389.458 43.5106 388.54 44.1247C387.622 44.7389 386.643 45.2609 385.603 45.6908C384.563 46.0592 383.492 46.2435 382.391 46.2435C380.433 46.2435 378.843 45.6601 377.619 44.4932C376.456 43.265 375.875 41.5761 375.875 39.4267C375.875 37.9528 376.212 36.6324 376.885 35.4656L376.701 35.2813C374.193 37.0009 371.44 39.2731 368.442 42.0981C365.444 44.8617 362.262 48.1473 358.897 51.9548C357.673 53.3059 356.389 55.0869 355.043 57.2977C353.758 59.5086 352.626 61.7808 351.647 64.1145H345.682C348.986 58.833 352.289 53.5823 355.593 48.3622C358.897 43.1421 362.293 37.83 365.78 32.4257H371.378Z" fill="white"/>
<path d="M425.984 0.368477L393.497 48.8228L393.68 49.007C394.904 47.4717 396.342 45.7215 397.993 43.7563C399.645 41.7297 401.42 39.8259 403.316 38.0449C405.274 36.2639 407.324 34.7593 409.465 33.5311C411.607 32.3028 413.748 31.6887 415.889 31.6887C419.621 31.6887 421.488 33.5618 421.488 37.3079C421.488 38.2905 421.12 39.4574 420.386 40.8085C419.713 42.1595 418.826 43.6027 417.725 45.138C416.685 46.6119 415.553 48.1166 414.329 49.6519C413.106 51.1872 411.943 52.6918 410.842 54.1657C409.802 55.5782 408.915 56.9292 408.18 58.2189C407.507 59.4471 407.171 60.4912 407.171 61.3509C407.171 62.0265 407.354 62.6099 407.721 63.1012C408.15 63.5311 408.7 63.746 409.373 63.746C410.781 63.746 412.31 63.3161 413.962 62.4564C415.675 61.5352 417.419 60.3683 419.193 58.9558C421.029 57.4819 422.834 55.8545 424.608 54.0736C426.382 52.2926 428.003 50.5423 429.472 48.8228C431.001 47.0418 432.347 45.3837 433.51 43.8484C434.734 42.2516 435.621 40.962 436.171 39.9794L436.722 40.1636C436.049 41.3305 435.101 42.743 433.877 44.4011C432.653 46.0592 431.246 47.8095 429.655 49.6519C428.126 51.4942 426.443 53.3366 424.608 55.179C422.834 56.96 421.029 58.5874 419.193 60.0613C417.419 61.4738 415.645 62.6406 413.87 63.5618C412.096 64.4216 410.444 64.8515 408.915 64.8515C407.324 64.8515 406.008 64.3602 404.968 63.3776C403.989 62.395 403.5 61.0439 403.5 59.3243C403.5 58.0961 403.836 56.745 404.509 55.2711C405.244 53.7972 406.131 52.3233 407.171 50.8494C408.272 49.3141 409.435 47.8095 410.658 46.3356C411.882 44.8003 413.014 43.3571 414.054 42.006C415.155 40.6549 416.042 39.4267 416.715 38.3213C417.449 37.1544 417.817 36.1718 417.817 35.3734C417.817 34.3908 417.541 33.7153 416.991 33.3468C416.44 32.9784 415.767 32.7941 414.972 32.7941C413.442 32.7941 411.729 33.3775 409.832 34.5444C407.997 35.6498 406.07 37.1237 404.051 38.9661C402.093 40.8085 400.135 42.8965 398.177 45.2302C396.219 47.5024 394.353 49.8054 392.579 52.1391C390.866 54.4728 389.336 56.6836 387.99 58.7716C386.705 60.8597 385.696 62.6406 384.962 64.1145H378.996C382.361 58.833 385.818 53.4594 389.367 47.9937C392.915 42.528 396.433 37.093 399.921 31.6887C403.469 26.2844 406.926 20.9724 410.291 15.7523C413.656 10.4708 416.838 5.43501 419.836 0.644829L425.984 0.368477Z" fill="white"/>
<path d="M480.07 40.8085C478.602 42.4666 476.95 43.787 475.114 44.7696C473.279 45.7522 471.474 46.2435 469.7 46.2435C467.987 46.2435 466.518 45.875 465.294 45.138C464.071 44.3397 463.122 43.4185 462.449 42.3745H462.266C461.654 44.7081 460.522 47.1954 458.87 49.8361C457.218 52.4768 455.23 54.9026 452.905 57.1135C450.641 59.3243 448.133 61.1667 445.38 62.6406C442.626 64.1145 439.812 64.8515 436.936 64.8515C434.306 64.8515 432.317 64.0838 430.971 62.5485C429.625 61.0132 428.952 58.9559 428.952 56.3765C428.952 55.0255 429.289 53.4594 429.962 51.6785C430.635 49.8975 431.552 48.1165 432.715 46.3356C433.938 44.4932 435.346 42.7122 436.936 40.9927C438.588 39.2117 440.363 37.6457 442.259 36.2946C444.156 34.8822 446.144 33.7767 448.225 32.9784C450.366 32.1186 452.507 31.6887 454.649 31.6887C457.157 31.6887 459.084 32.4257 460.43 33.8996C461.838 35.3735 462.602 37.2772 462.725 39.6109C462.847 41.0234 463.49 42.3438 464.652 43.572C465.876 44.7389 467.528 45.3223 469.608 45.3223C471.443 45.3223 473.156 44.8617 474.747 43.9405C476.399 43.0193 477.929 41.8218 479.336 40.3479L480.07 40.8085ZM433.908 58.5874C433.908 60.1841 434.214 61.4431 434.826 62.3643C435.437 63.2855 436.355 63.746 437.579 63.746C439.231 63.746 440.852 63.3161 442.443 62.4564C444.095 61.5352 445.655 60.3683 447.123 58.9558C448.653 57.4819 450.06 55.8238 451.345 53.9815C452.63 52.1391 453.731 50.2353 454.649 48.2701C455.628 46.3049 456.392 44.4011 456.943 42.5587C457.494 40.6549 457.769 38.9354 457.769 37.4001C457.769 36.1104 457.432 35.0357 456.759 34.1759C456.148 33.2547 455.169 32.7941 453.823 32.7941C452.538 32.7941 451.161 33.224 449.693 34.0838C448.225 34.8821 446.726 35.9569 445.196 37.3079C443.728 38.659 442.32 40.225 440.974 42.006C439.628 43.787 438.405 45.6293 437.303 47.5331C436.263 49.4369 435.437 51.3407 434.826 53.2445C434.214 55.1483 433.908 56.9293 433.908 58.5874Z" fill="white"/>
<path d="M492.674 32.4257C490.288 35.6805 487.993 38.7818 485.791 41.7296C483.588 44.6774 481.63 47.3796 479.917 49.8361C478.204 52.2926 476.828 54.442 475.787 56.2844C474.809 58.0654 474.319 59.4779 474.319 60.5219C474.319 61.5045 474.564 62.2414 475.053 62.7327C475.543 63.1626 476.185 63.3776 476.981 63.3776C478.143 63.3776 479.397 63.0091 480.743 62.2721C482.15 61.5352 483.558 60.5833 484.965 59.4165C486.433 58.2496 487.84 56.9599 489.186 55.5475C490.594 54.135 491.879 52.7532 493.041 51.4021C494.265 49.9896 495.305 48.7 496.161 47.5331C497.079 46.3663 497.752 45.4451 498.18 44.7696L506.256 32.4257H512.589C509.285 36.9702 506.47 40.8392 504.146 44.0326C501.882 47.1647 500.016 49.8361 498.547 52.0469C497.14 54.2578 496.131 56.0695 495.519 57.482C494.907 58.833 494.601 60.0306 494.601 61.0746C494.601 61.8116 494.815 62.4564 495.244 63.0091C495.672 63.5004 496.284 63.746 497.079 63.746C498.303 63.746 499.71 63.3161 501.301 62.4564C502.891 61.5352 504.543 60.3683 506.256 58.9558C507.97 57.4819 509.652 55.8545 511.304 54.0736C513.017 52.2312 514.608 50.4195 516.076 48.6386C517.606 46.8576 518.982 45.1995 520.206 43.6641C521.43 42.0674 522.378 40.7778 523.051 39.7952L523.969 40.0715C523.235 41.1155 522.256 42.4666 521.032 44.1247C519.808 45.7215 518.432 47.441 516.902 49.2834C515.373 51.0644 513.751 52.9067 512.038 54.8105C510.325 56.6529 508.551 58.311 506.715 59.7849C504.941 61.2588 503.167 62.4871 501.392 63.4697C499.679 64.3909 498.058 64.8515 496.528 64.8515C494.815 64.8515 493.439 64.3909 492.399 63.4697C491.42 62.4871 490.93 61.1974 490.93 59.6007C490.93 58.3724 491.114 57.2056 491.481 56.1002C491.909 54.9333 492.215 54.1964 492.399 53.8893L492.215 53.7051C490.93 55.179 489.584 56.5915 488.177 57.9426C486.77 59.2936 485.363 60.4912 483.955 61.5352C482.548 62.5178 481.11 63.3162 479.642 63.9303C478.235 64.5444 476.828 64.8515 475.42 64.8515C473.463 64.8515 472.055 64.4216 471.199 63.5618C470.342 62.6406 469.914 61.5659 469.914 60.3377C469.914 58.8023 470.342 57.1442 471.199 55.3632C471.994 53.5823 473.126 51.5864 474.594 49.3755C476.063 47.1647 477.807 44.6775 479.826 41.9139C481.906 39.1503 484.169 35.9876 486.617 32.4257H492.674Z" fill="white"/>
<path d="M535.288 32.4257L523.632 49.4676L523.816 49.6519C524.673 48.6078 525.743 47.4103 527.028 46.0592C528.374 44.6468 529.812 43.2342 531.341 41.8218C532.932 40.3479 534.584 38.9047 536.297 37.4922C538.01 36.0797 539.693 34.8207 541.345 33.7153C541.651 33.1012 541.987 32.6099 542.354 32.2414C542.721 31.8729 543.456 31.6887 544.557 31.6887C545.23 31.6887 545.811 31.7194 546.301 31.7808C546.851 31.7808 547.402 31.8115 547.953 31.8729C546.912 32.917 545.903 34.2066 544.924 35.7419C543.945 37.2158 543.456 38.8433 543.456 40.6242C543.456 42.0367 543.792 43.1421 544.465 43.9405C545.199 44.7389 546.086 45.138 547.127 45.138C548.044 45.138 548.931 44.9538 549.788 44.5853C550.706 44.2169 551.562 43.7562 552.358 43.2035C553.153 42.6508 553.918 42.0674 554.652 41.4533C555.386 40.8392 556.029 40.2864 556.579 39.7952L557.13 40.1636C556.518 40.7778 555.814 41.4533 555.019 42.1902C554.224 42.8658 553.367 43.5106 552.449 44.1247C551.532 44.7389 550.553 45.2609 549.513 45.6908C548.473 46.0592 547.402 46.2435 546.301 46.2435C544.343 46.2435 542.752 45.6601 541.528 44.4932C540.366 43.265 539.785 41.5761 539.785 39.4267C539.785 37.9528 540.121 36.6324 540.794 35.4656L540.611 35.2813C538.102 37.0009 535.349 39.2731 532.351 42.0981C529.353 44.8617 526.172 48.1473 522.807 51.9548C521.583 53.3059 520.298 55.0869 518.952 57.2977C517.667 59.5086 516.535 61.7808 515.556 64.1145H509.591C512.895 58.833 516.199 53.5823 519.503 48.3622C522.806 43.1421 526.202 37.83 529.69 32.4257H535.288Z" fill="white"/>
<path d="M590.353 40.3479C588.517 43.2957 586.376 46.2435 583.929 49.1913C581.542 52.0776 578.912 54.6877 576.036 57.0214C573.16 59.355 570.01 61.2588 566.583 62.7327C563.218 64.1452 559.609 64.8515 555.754 64.8515C554.286 64.8515 552.909 64.6672 551.624 64.2987C550.339 63.9303 549.207 63.3776 548.229 62.6406C547.311 61.9037 546.577 60.9825 546.026 59.8771C545.414 58.7102 545.108 57.3591 545.108 55.8238C545.108 54.2271 545.628 52.7839 546.668 51.4942C547.708 50.2046 549.116 49.5597 550.89 49.5597C551.808 49.5597 552.542 49.8054 553.093 50.2967C553.704 50.7266 554.01 51.4021 554.01 52.3233C554.01 53.1831 553.796 53.92 553.368 54.5342C552.94 55.1483 552.297 55.4554 551.441 55.4554C550.768 55.4554 550.217 55.2711 549.789 54.9026C549.422 54.5341 549.177 54.0736 549.055 53.5209C548.381 53.8893 547.923 54.442 547.678 55.179C547.433 55.8545 547.311 56.5608 547.311 57.2977C547.311 59.4472 548.106 61.0746 549.697 62.18C551.349 63.224 553.184 63.746 555.203 63.746C556.488 63.746 557.589 63.5004 558.507 63.0091C559.486 62.4564 560.281 61.7808 560.893 60.9825C561.566 60.1227 562.056 59.1401 562.362 58.0347C562.668 56.9292 562.821 55.8238 562.821 54.7184C562.821 53.5516 562.606 52.354 562.178 51.1258C561.811 49.8361 561.383 48.5772 560.893 47.3489C560.404 46.1207 559.945 44.9231 559.517 43.7563C559.088 42.528 558.874 41.3919 558.874 40.3479C558.874 38.9968 559.15 37.7993 559.7 36.7552C560.251 35.6498 560.985 34.7286 561.903 33.9917C562.882 33.2547 563.983 32.702 565.207 32.3335C566.43 31.9036 567.715 31.6887 569.061 31.6887C571.509 31.6887 573.497 32.2414 575.026 33.3468C576.556 34.3908 577.321 35.8033 577.321 37.5843C577.321 39.181 576.709 40.3479 575.485 41.0848C574.323 41.8218 573.007 42.1902 571.539 42.1902C571.906 41.5147 572.212 40.7163 572.457 39.7952C572.763 38.8125 572.916 37.9221 572.916 37.1237C572.916 35.8955 572.518 34.8821 571.723 34.0838C570.988 33.224 569.918 32.7941 568.511 32.7941C566.736 32.7941 565.421 33.3468 564.564 34.4523C563.708 35.4963 563.279 36.7859 563.279 38.3213C563.279 39.6723 563.494 40.962 563.922 42.1902C564.411 43.4185 564.962 44.6467 565.574 45.875C566.124 47.1032 566.614 48.3622 567.042 49.6519C567.532 50.9415 567.776 52.3847 567.776 53.9815C567.776 55.1483 567.501 56.2844 566.95 57.3898C566.461 58.4338 565.788 59.4165 564.931 60.3377C564.075 61.1974 563.096 61.9344 561.995 62.5485C560.955 63.1626 559.884 63.5618 558.783 63.746L558.966 63.9303C562.27 63.5618 565.421 62.6099 568.419 61.0746C571.417 59.4779 574.201 57.5741 576.77 55.3632C579.401 53.091 581.818 50.6345 584.02 47.9937C586.223 45.2916 588.15 42.6508 589.802 40.0715L590.353 40.3479Z" fill="white"/>
</svg>
