<svg width="48" height="48" viewBox="0 0 48 48" fill="none" xmlns="http://www.w3.org/2000/svg">
<path d="M27.876 8.14802C34.3905 7.57802 40.8975 4.19552 47.4135 7.06952V46.851C38.43 42.8745 29.445 50.8275 20.46 46.851V39.8595C13.836 40.398 7.21049 43.827 0.586487 40.938V1.15652C9.68849 5.13302 18.783 -2.81998 27.876 1.15652V8.14802ZM32.8365 29.742C33.624 29.5695 34.407 29.3895 35.1885 29.2185C38.6565 28.461 40.041 26.415 40.041 23.196V18C40.041 14.8275 39.1485 12.8205 34.9305 13.7265C32.5785 14.2425 30.2265 14.8125 27.876 15.024V40.9545C29.532 40.812 31.1805 40.485 32.8365 40.125V29.742ZM32.8365 25.524V18.204L33.774 17.9925C34.9305 17.7345 35.04 18.3045 35.04 19.251V23.571C35.04 24.3765 34.9305 25.0635 33.774 25.3125L32.8365 25.524ZM13.062 34.218V23.1315L14.1105 22.905C15.1185 22.6875 15.4065 22.9365 15.414 24.1545V31.725C15.414 32.8755 15.6015 33.3885 15.8595 33.6165C17.5155 33.273 19.1715 32.967 20.82 32.859V32.6865C20.64 32.388 20.4135 31.92 20.4135 30.795V21.975C20.4135 20.0535 19.0695 19.3185 18.2895 19.179C19.218 18.6315 20.484 17.577 20.484 15.4215V11.274C20.484 8.49152 18.96 7.02452 15.9375 7.66352C13.32 8.20952 10.71 8.87552 8.10149 9.10202V35.04C9.74999 34.8975 11.406 34.578 13.062 34.218ZM13.062 18.852V12.2955C13.4385 12.21 13.8045 12.132 14.1795 12.045C15.1875 11.8275 15.414 12.1305 15.414 13.2495V16.7655C15.414 17.9835 15.0405 18.414 14.0325 18.6315L13.062 18.852Z" fill="white" fill-opacity="0.9"/>
</svg>
