<svg width="48" height="48" viewBox="0 0 48 48" fill="none" xmlns="http://www.w3.org/2000/svg">
<path d="M24 0C10.7955 0 0 10.7955 0 24C0 37.2045 10.7955 48 24 48C37.2045 48 48 37.2045 48 24C48 10.7955 37.32 0 24 0ZM35.04 34.68C34.5615 35.3985 33.7185 35.64 33 35.1555C27.36 31.68 20.2815 30.96 11.8755 32.8755C11.04 33.123 10.32 32.523 10.077 31.7955C9.843 30.96 10.437 30.2415 11.1555 30C20.2815 27.96 28.203 28.7955 34.437 32.64C35.2815 33 35.397 33.96 35.0385 34.68H35.04ZM37.9215 28.0785C37.32 28.923 36.2415 29.283 35.397 28.68C28.9215 24.7185 19.077 23.5245 11.523 25.9215C10.5615 26.1555 9.4755 25.68 9.2415 24.717C9 23.757 9.4755 22.6785 10.437 22.437C19.203 19.7955 29.9985 21.123 37.437 25.6785C38.163 26.0385 38.523 27.24 37.9215 28.077V28.0785ZM38.1645 21.36C30.477 16.7955 17.64 16.32 10.32 18.6015C9.1185 18.96 7.9215 18.2415 7.5615 17.1555C7.203 15.96 7.9215 14.757 9 14.397C17.5245 11.8755 31.5615 12.3585 40.446 17.6385C41.5245 18.24 41.8815 19.6785 41.2815 20.757C40.68 21.6015 39.2415 21.9585 38.163 21.3585L38.1645 21.36Z" fill="white"/>
</svg>
