<svg width="48" height="48" viewBox="0 0 48 48" fill="none" xmlns="http://www.w3.org/2000/svg">
<path d="M10.68 4.23768e-05C9.27641 -0.00391711 7.88585 0.269627 6.5883 0.804944C5.29076 1.34026 4.11183 2.12679 3.11931 3.11931C2.12679 4.11183 1.34026 5.29076 0.804944 6.5883C0.269627 7.88585 -0.00391711 9.27641 4.23768e-05 10.68V37.32C-0.00391711 38.7237 0.269627 40.1142 0.804944 41.4118C1.34026 42.7093 2.12679 43.8883 3.11931 44.8808C4.11183 45.8733 5.29076 46.6598 6.5883 47.1951C7.88585 47.7305 9.27641 48.004 10.68 48H37.32C38.7237 48.004 40.1142 47.7305 41.4118 47.1951C42.7093 46.6598 43.8883 45.8733 44.8808 44.8808C45.8733 43.8883 46.6598 42.7093 47.1951 41.4118C47.7305 40.1142 48.004 38.7237 48 37.32V10.68C48.004 9.27641 47.7305 7.88585 47.1951 6.5883C46.6598 5.29076 45.8733 4.11183 44.8808 3.11931C43.8883 2.12679 42.7093 1.34026 41.4118 0.804944C40.1142 0.269627 38.7237 -0.00391711 37.32 4.23768e-05H10.68ZM23.7255 5.13154C28.398 5.13154 32.6235 6.93754 35.844 10.311C38.2905 12.8505 39.6645 15.5445 40.368 19.0935C40.6095 20.274 40.6095 23.4915 40.3815 24.819C39.6346 29.0401 37.322 32.8238 33.906 35.4135C32.688 36.336 29.7105 37.938 29.2335 37.938C29.0535 37.938 29.04 37.758 29.118 37.0155C29.2665 35.8275 29.406 35.586 30.078 35.304C31.1475 34.86 32.976 33.5535 34.0935 32.4375C36.0472 30.4844 37.4349 28.0381 38.109 25.359C38.5305 23.709 38.475 20.0445 38.0145 18.351C36.561 12.9585 32.154 8.77354 26.7645 7.64704C25.203 7.32754 22.35 7.32754 20.7645 7.64704C15.3105 8.77354 10.794 13.1715 9.42004 18.7035C9.05254 20.2095 9.05254 23.8755 9.42004 25.3755C10.3335 29.04 12.702 32.397 15.8025 34.398C16.413 34.8045 17.1465 35.2185 17.4525 35.3445C18.123 35.6325 18.273 35.877 18.396 37.0545C18.474 37.782 18.4575 37.9845 18.288 37.9845C18.1785 37.9845 17.358 37.632 16.4895 37.218L16.4115 37.1565C11.466 34.7265 8.30104 30.6105 7.14604 25.1325C6.86554 23.718 6.81004 20.352 7.09204 19.0545C7.81054 15.57 9.18604 12.852 11.4735 10.446C14.772 6.96754 19.014 5.13154 23.7315 5.13154H23.7255ZM24 10.758C24.7416 10.7563 25.4816 10.8266 26.2095 10.968C31.782 12.21 35.7255 17.7825 34.959 23.3115C34.6545 25.545 33.8895 27.375 32.5305 29.0775C31.8585 29.937 30.225 31.3755 29.937 31.3755C29.889 31.3755 29.8425 30.828 29.8425 30.171V28.959L30.6705 27.9675C33.81 24.21 33.585 18.96 30.162 15.5235C28.8345 14.1795 27.294 13.389 25.3095 13.032C24.03 12.7905 23.763 12.7905 22.419 13.0155C20.373 13.344 18.7935 14.1315 17.3865 15.5235C13.95 18.93 13.722 24.21 16.8645 27.9675L17.6925 28.959V30.1785C17.6925 30.8505 17.637 31.389 17.5665 31.389C17.5125 31.389 17.043 31.0695 16.542 30.6705L16.4715 30.6465C14.808 29.319 13.3395 26.967 12.729 24.654C12.363 23.256 12.363 20.6085 12.7455 19.2165C13.7535 15.459 16.527 12.5445 20.364 11.178C21.1845 10.8885 22.6275 10.7325 23.988 10.7565L24 10.758ZM23.7345 16.734C24.36 16.734 24.9765 16.86 25.431 17.094C26.3985 17.6025 27.2055 18.5775 27.5085 19.6095C28.4385 22.7655 25.095 25.5315 22.062 24.117H22.0395C20.61 23.4525 19.8435 22.203 19.827 20.577C19.827 19.1085 20.6385 17.835 22.053 17.085C22.4985 16.851 23.1165 16.7325 23.7405 16.7325L23.7345 16.734ZM23.718 26.196C25.6965 26.1885 27.1245 26.8905 27.6555 28.1325C28.053 29.0625 27.906 31.992 27.2175 36.735C26.757 40.047 26.499 40.8825 25.86 41.4465C24.9765 42.2265 23.7345 42.447 22.5465 42.024H22.5405C21.111 41.508 20.805 40.812 20.211 36.7335C19.533 31.992 19.383 29.061 19.7835 28.131C20.3055 26.8965 21.7275 26.2035 23.7195 26.1945L23.718 26.196Z" fill="white" fill-opacity="0.9"/>
</svg>
