<svg width="48" height="48" viewBox="0 0 48 48" fill="none" xmlns="http://www.w3.org/2000/svg">
<path d="M3 19.359C2.20435 19.359 1.44129 19.6751 0.87868 20.2377C0.316071 20.8003 0 21.5634 0 22.359L0 25.617C0 29.6175 6 29.6175 6 25.617V22.359C6 21.5634 5.68393 20.8003 5.12132 20.2377C4.55871 19.6751 3.79565 19.359 3 19.359ZM45 19.359C44.2043 19.359 43.4413 19.6751 42.8787 20.2377C42.3161 20.8003 42 21.5634 42 22.359V25.617C42 29.6175 48 29.6175 48 25.617V22.359C48 21.5634 47.6839 20.8003 47.1213 20.2377C46.5587 19.6751 45.7957 19.359 45 19.359ZM13.359 29.1795C12.5634 29.1795 11.8003 29.4956 11.2377 30.0582C10.6751 30.6208 10.359 31.3839 10.359 32.1795V35.4375C10.359 39.438 16.359 39.438 16.359 35.4375V32.2035C16.359 30.54 15.0225 29.2035 13.359 29.2035V29.1795ZM13.359 9.5385C12.5634 9.5385 11.8003 9.85457 11.2377 10.4172C10.6751 10.9798 10.359 11.7429 10.359 12.5385V23.2575C10.359 27.258 16.359 27.258 16.359 23.2575V12.5235C16.359 10.86 15.0225 9.5235 13.359 9.5235V9.5385ZM34.641 9.5385C32.9775 9.5385 31.641 10.8825 31.641 12.5385V15.8205C31.641 19.821 37.641 19.821 37.641 15.8205V12.5385C37.641 11.7429 37.3249 10.9798 36.7623 10.4172C36.1997 9.85457 35.4366 9.5385 34.641 9.5385ZM24 0C23.2044 0 22.4413 0.316071 21.8787 0.87868C21.3161 1.44129 21 2.20435 21 3V6.258C21 10.2585 27 10.2585 27 6.258V3C27 2.20435 26.6839 1.44129 26.1213 0.87868C25.5587 0.316071 24.7956 0 24 0V0ZM24 38.7195C23.2044 38.7195 22.4413 39.0356 21.8787 39.5982C21.3161 40.1608 21 40.9239 21 41.7195V45.0015C20.985 49.002 26.985 49.0245 27 45.0255V41.7435C27 40.1025 25.656 38.7435 24 38.7435V38.7195ZM34.641 21.7965C32.9775 21.7965 31.641 23.1555 31.641 24.7965V35.46C31.641 39.4605 37.641 39.4605 37.641 35.46V24.7965C37.641 24.0009 37.3249 23.2378 36.7623 22.6752C36.1997 22.1126 35.4366 21.7965 34.641 21.7965ZM24 12.258C22.344 12.258 21 13.617 21 15.258V32.7195C21 36.72 27 36.72 27 32.7195V15.282C27 13.6185 25.656 12.282 24 12.282V12.258Z" fill="white" fill-opacity="0.9"/>
</svg>
