<svg width="48" height="48" viewBox="0 0 48 48" fill="none" xmlns="http://www.w3.org/2000/svg">
<path d="M24 48C10.782 48.0405 0.0315 37.344 0 24.1245V24C0 10.704 10.704 0 24 0C37.296 0 48 10.704 48 24C48 37.296 37.296 48 24 48ZM24 38.5005L25.7955 36.705L24 29.7975L22.2045 36.705L24 38.5005ZM21.7035 38.3985L20.796 41.796L22.8975 39.696L21.7035 38.3985ZM26.2965 38.3985L25.1025 39.603L27.204 41.7045L26.2965 38.3985ZM28.0005 44.6025L24 40.602L19.9995 44.6025C21.2955 44.805 22.602 45 24 45C25.398 45 26.7045 44.898 28.0005 44.6025ZM24 3C12.3975 3 3 12.3975 3 24C2.99099 28.3584 4.34578 32.6105 6.87455 36.1603C9.40332 39.7102 12.9793 42.3799 17.1015 43.7955L21.6015 27.102C21.0979 26.7348 20.6896 26.2523 20.4109 25.6948C20.1321 25.1373 19.9911 24.5212 19.9995 23.898C19.9995 21.696 21.795 19.8975 24 19.8975C26.205 19.8975 28.0005 21.696 28.0005 23.898C28.0005 25.1955 27.399 26.2965 26.3985 27.102L30.8985 43.7955C35.0205 42.3797 38.5964 39.7099 41.1252 36.1601C43.6539 32.6103 45.0088 28.3584 45 24C45 12.3975 35.6025 3 24 3ZM37.704 34.398C37.4583 34.7067 37.1043 34.9102 36.7138 34.9671C36.3234 35.0239 35.926 34.9298 35.6025 34.704C35.3026 34.5045 35.0934 34.195 35.0201 33.8423C34.9468 33.4897 35.0154 33.1224 35.211 32.82C35.2425 32.7735 35.2755 32.7345 35.3055 32.6955C35.3055 32.6955 38.001 29.1015 38.001 24C38.001 18.8985 35.3055 15.2955 35.3055 15.2955C35.191 15.1583 35.1048 14.9998 35.0519 14.8291C34.999 14.6584 34.9803 14.4789 34.9971 14.301C35.0138 14.1231 35.0656 13.9503 35.1494 13.7925C35.2332 13.6346 35.3475 13.495 35.4855 13.3815C35.526 13.3515 35.5635 13.32 35.604 13.296C35.927 13.0704 36.3235 12.9757 36.7136 13.0311C37.1036 13.0865 37.4581 13.2879 37.7055 13.5945C37.899 13.797 41.001 17.898 41.001 23.9925C41.001 30.0945 37.899 34.2045 37.7055 34.398H37.704ZM30.3975 30.4995C29.796 29.898 29.898 28.7955 30.4995 28.203C30.4995 28.203 31.9995 26.601 31.9995 23.9985C31.9995 21.396 30.4995 19.896 30.4995 19.794C29.898 19.194 29.898 18.1935 30.3975 17.4975C30.5195 17.3388 30.6746 17.2086 30.8519 17.1158C31.0293 17.023 31.2247 16.9699 31.4246 16.9602C31.6246 16.9505 31.8242 16.9844 32.0097 17.0596C32.1953 17.1348 32.3622 17.2494 32.499 17.3955C32.601 17.4975 34.9995 19.998 34.9995 23.997C34.9995 27.996 32.601 30.4965 32.499 30.5985C31.8975 31.2 30.999 31.098 30.3975 30.4965V30.4995ZM17.6025 30.4995C17.001 31.101 16.1025 31.203 15.501 30.6015C15.399 30.3975 13.0005 27.999 13.0005 24C13.0005 20.001 15.399 17.6025 15.501 17.3985C16.1025 16.797 17.103 16.797 17.6025 17.5005C18.204 18.102 18.102 19.2045 17.5005 19.797C17.5005 19.899 16.0005 21.399 16.0005 24.0015C16.0005 26.604 17.5005 28.206 17.5005 28.206C18.102 28.7985 18.204 29.7975 17.6025 30.5025V30.4995ZM12.3975 34.704C12.074 34.9298 11.6766 35.0239 11.2862 34.9671C10.8957 34.9102 10.5417 34.7067 10.296 34.398C10.1025 34.2045 7.0005 30.102 7.0005 24C7.0005 17.898 10.1025 13.7955 10.296 13.602C10.5417 13.2933 10.8957 13.0898 11.2862 13.0329C11.6766 12.9761 12.074 13.0702 12.3975 13.296C12.6974 13.4955 12.9066 13.805 12.9799 14.1577C13.0532 14.5103 12.9846 14.8776 12.789 15.18C12.7575 15.2175 12.7245 15.2655 12.7035 15.2955C12.7035 15.2955 9.999 18.897 9.999 24C9.999 29.103 12.7035 32.7045 12.7035 32.7045C13.203 33.297 12.999 34.2045 12.3975 34.704Z" fill="white" fill-opacity="0.9"/>
</svg>
