<svg width="20" height="18" viewBox="0 0 20 18" fill="none" xmlns="http://www.w3.org/2000/svg">
<path d="M0.625 4H16.875C17.2203 4 17.5 3.72031 17.5 3.375V0.875C17.5 0.529687 17.2203 0.25 16.875 0.25H0.625C0.279687 0.25 0 0.529687 0 0.875V3.375C0 3.72031 0.279687 4 0.625 4ZM19.375 7.125H3.125C2.77969 7.125 2.5 7.40469 2.5 7.75V10.25C2.5 10.5953 2.77969 10.875 3.125 10.875H19.375C19.7203 10.875 20 10.5953 20 10.25V7.75C20 7.40469 19.7203 7.125 19.375 7.125ZM16.875 14H0.625C0.279687 14 0 14.2797 0 14.625V17.125C0 17.4703 0.279687 17.75 0.625 17.75H16.875C17.2203 17.75 17.5 17.4703 17.5 17.125V14.625C17.5 14.2797 17.2203 14 16.875 14Z" fill="white"/>
</svg>
