<svg width="48" height="48" viewBox="0 0 48 48" fill="none" xmlns="http://www.w3.org/2000/svg">
<path d="M24 0C10.744 0 0 10.744 0 24C0 37.256 10.744 48 24 48C37.256 48 48 37.256 48 24C48 10.744 37.256 0 24 0ZM31.128 24C31.128 22.5902 30.71 21.2121 29.9267 20.0399C29.1435 18.8677 28.0302 17.9541 26.7278 17.4146C25.4253 16.8751 23.9921 16.7339 22.6094 17.009C21.2267 17.284 19.9566 17.9629 18.9597 18.9597C17.9629 19.9566 17.284 21.2267 17.009 22.6094C16.7339 23.9921 16.8751 25.4253 17.4146 26.7278C17.9541 28.0302 18.8677 29.1435 20.0399 29.9267C21.2121 30.71 22.5902 31.128 24 31.128V35.2C21.7848 35.2 19.6194 34.5431 17.7776 33.3125C15.9358 32.0818 14.5002 30.3326 13.6525 28.2861C12.8048 26.2395 12.583 23.9876 13.0152 21.815C13.4474 19.6424 14.5141 17.6468 16.0804 16.0804C17.6468 14.5141 19.6424 13.4474 21.815 13.0152C23.9876 12.583 26.2395 12.8048 28.2861 13.6525C30.3326 14.5002 32.0818 15.9358 33.3125 17.7776C34.5431 19.6194 35.2 21.7848 35.2 24H31.128ZM38 24C38 21.2311 37.1789 18.5243 35.6406 16.222C34.1022 13.9197 31.9157 12.1253 29.3576 11.0657C26.7994 10.0061 23.9845 9.72881 21.2687 10.269C18.553 10.8092 16.0584 12.1426 14.1005 14.1005C12.1426 16.0584 10.8092 18.553 10.269 21.2687C9.72881 23.9845 10.0061 26.7994 11.0657 29.3576C12.1253 31.9157 13.9197 34.1022 16.222 35.6406C18.5243 37.1789 21.2311 38 24 38V42.666C19.0495 42.666 14.3017 40.6994 10.8011 37.1989C7.30059 33.6983 5.334 28.9505 5.334 24C5.334 19.0495 7.30059 14.3017 10.8011 10.8011C14.3017 7.30059 19.0495 5.334 24 5.334C26.4513 5.334 28.8785 5.81681 31.1432 6.75486C33.4078 7.69292 35.4656 9.06785 37.1989 10.8011C38.9322 12.5344 40.3071 14.5922 41.2451 16.8568C42.1832 19.1215 42.666 21.5487 42.666 24H38Z" fill="white" fill-opacity="0.9"/>
</svg>
